<svg width="60" height="60" viewBox="0 0 60 60" fill="none" xmlns="http://www.w3.org/2000/svg">
<path d="M41.4814 18.6668H11.9521C10.9274 18.6668 10.1383 17.7437 10.4107 16.7559C13.101 7 22.9631 7 22.9631 7C27.8887 7 30.8734 8.78322 32.5625 10.3169C32.9453 10.6645 33.4479 10.8566 33.965 10.8568C36.0363 10.8575 41.4406 11.3964 42.9883 16.844C43.2589 17.7962 42.4712 18.6668 41.4814 18.6668Z" fill="#72EDF2"/>
<path d="M43.333 25.3333H46.6664C48.5074 25.3333 49.9998 26.8257 49.9998 28.6666V42.0001C49.9998 43.8411 48.5074 45.3335 46.6664 45.3335H43.333" stroke="#72EDF2" stroke-width="4.57632" stroke-linecap="round"/>
<path d="M43.334 48.668C43.3339 50.5089 41.8409 52.001 40 52.001H13.333C11.4923 52.0008 10.0001 50.5088 10 48.668V18.668H43.334V48.668ZM20.832 23.667C19.4513 23.667 18.332 24.7863 18.332 26.167V44.5C18.332 45.8807 19.4513 47 20.832 47C22.2128 47 23.332 45.8807 23.332 44.5V26.167C23.332 24.7863 22.2128 23.667 20.832 23.667ZM32.5 23.667C31.1193 23.667 30 24.7863 30 26.167V44.5C30 45.8807 31.1193 47 32.5 47C33.8807 47 35 45.8807 35 44.5V26.167C35 24.7863 33.8807 23.667 32.5 23.667Z" fill="#3A3ADB"/>
</svg>
