<svg width="60" height="60" viewBox="0 0 60 60" fill="none" xmlns="http://www.w3.org/2000/svg">
<path d="M47.3459 12.9619H51.9963C52.8423 12.9621 53.9973 13.2708 54.7277 14.3271C55.709 15.7468 56.0331 17.6089 55.9484 19.3057C55.8623 21.0298 55.3423 22.8848 54.2932 24.3799C53.2086 25.9254 50.8836 28.3513 46.2336 28.5273C44.2321 33.8371 39.7044 37.9069 34.1154 39.2725V44.8457L37.8078 44.8467C39.1884 44.8468 40.3078 45.966 40.3078 47.3467C40.3076 48.7271 39.1883 49.8456 37.8078 49.8457H23.8078C22.4271 49.8457 21.3078 48.7264 21.3078 47.3457C21.3081 45.9652 22.4273 44.8457 23.8078 44.8457H27.5002V39.5898C21.1586 38.6824 15.9222 34.352 13.7268 28.5273C9.07747 28.3509 6.75263 25.9252 5.66817 24.3799C4.61903 22.8848 4.09903 21.0298 4.01289 19.3057C3.9282 17.609 4.25239 15.7467 5.2336 14.3271C5.96394 13.2709 7.11908 12.9622 7.96504 12.9619H12.6154V10H47.3459V12.9619ZM8.3293 16.9619C8.11088 17.4629 7.96301 18.2051 8.00801 19.1064C8.06423 20.2307 8.40735 21.3193 8.94258 22.082C9.45322 22.8097 10.4836 24.0202 12.7316 24.4111C12.6558 23.7526 12.6154 23.0831 12.6154 22.4043V16.9619H8.3293ZM47.3459 22.4043C47.3459 23.0831 47.3045 23.7526 47.2287 24.4111C49.4775 24.0205 50.508 22.8098 51.0188 22.082C51.554 21.3193 51.8971 20.2308 51.9533 19.1064C51.9983 18.205 51.8505 17.4629 51.632 16.9619H47.3459V22.4043Z" fill="#3A3ADB"/>
<path d="M30.1787 15.244C30.3767 14.6345 31.239 14.6345 31.437 15.244L32.8872 19.7072C32.9757 19.9798 33.2298 20.1643 33.5163 20.1643H38.2092C38.8501 20.1643 39.1165 20.9843 38.5981 21.361L34.8015 24.1194C34.5696 24.2879 34.4726 24.5865 34.5611 24.8591L36.0113 29.3223C36.2094 29.9318 35.5118 30.4386 34.9933 30.0619L31.1967 27.3035C30.9648 27.135 30.6509 27.135 30.419 27.3035L26.6224 30.0619C26.1039 30.4386 25.4063 29.9318 25.6044 29.3223L27.0545 24.8591C27.1431 24.5865 27.0461 24.2879 26.8142 24.1194L23.0176 21.361C22.4991 20.9843 22.7656 20.1643 23.4064 20.1643H28.0993C28.3859 20.1643 28.6399 19.9798 28.7285 19.7072L30.1787 15.244Z" fill="#72EDF2"/>
</svg>
