<svg width="60" height="60" viewBox="0 0 60 60" fill="none" xmlns="http://www.w3.org/2000/svg">
<path d="M22.0335 12.3247H18.6493C15.6553 12.3247 13.2282 14.7518 13.2282 17.7458V19.1144C13.2282 20.5522 12.657 21.931 11.6404 22.9477L9.83332 24.7548C7.71624 26.8718 7.71624 30.3043 9.83332 32.4214L11.6404 34.2284C12.657 35.2451 13.2282 36.624 13.2282 38.0618V41.2374C13.2282 44.2314 15.6553 46.6585 18.6493 46.6585H20.3618C21.5928 46.6585 22.7871 47.0775 23.7483 47.8465L27.5097 50.8556C29.6668 52.5812 32.7764 52.409 34.7296 50.4557L36.939 48.2463C37.9557 47.2297 39.3346 46.6585 40.7723 46.6585H43.948C46.942 46.6585 49.3691 44.2314 49.3691 41.2374V37.6233C49.3691 36.4503 49.7495 35.309 50.4533 34.3706L51.9692 32.3495C53.5879 30.1912 53.3733 27.1711 51.4656 25.2635L49.1499 22.9477C48.1332 21.931 47.5621 20.5522 47.5621 19.1144V17.7458C47.5621 14.7518 45.1349 12.3247 42.1409 12.3247H40.5637C39.2506 12.3247 37.9821 11.848 36.9939 10.9833L34.8685 9.12361C32.8246 7.33519 29.7727 7.33519 27.7288 9.12361L25.6034 10.9833C24.6152 11.848 23.3467 12.3247 22.0335 12.3247Z" fill="#3A3ADB"/>
<path d="M21 29.5L28.3548 38L40 21" stroke="#72EDF2" stroke-width="3.57002" stroke-linecap="round"/>
</svg>
