<svg width="60" height="60" viewBox="0 0 60 60" fill="none" xmlns="http://www.w3.org/2000/svg">
<path d="M20.9385 19.5784C21.3449 19.5785 21.7376 19.7253 22.0439 19.9924L26.748 24.0959H47.0693C47.9987 24.0959 48.752 24.8492 48.752 25.7786V49.5149C48.7517 50.4441 47.9986 51.1975 47.0693 51.1975H6.68262C5.75347 51.1974 5.00025 50.444 5 49.5149V21.261C5 20.3317 5.75332 19.5785 6.68262 19.5784H20.9385Z" fill="#3A3ADB"/>
<path d="M33.752 13.4019L47.6721 19.3425C48.8983 19.8658 49.1919 21.4713 48.2302 22.3947L33.752 36.2971" stroke="#72EDF2" stroke-opacity="0.8" stroke-width="1.85991"/>
<path d="M35.585 9.9292C37.6397 9.9292 39.2402 11.52 39.2402 13.4028C39.24 15.2855 37.6396 16.8755 35.585 16.8755C33.5305 16.8753 31.9299 15.2854 31.9297 13.4028C31.9297 11.5201 33.5304 9.92938 35.585 9.9292Z" fill="#72EDF2" stroke="#72EDF2" stroke-width="1.85991"/>
<path d="M50.2588 16.9729C52.3135 16.9729 53.9141 18.5637 53.9141 20.4465C53.9138 22.3292 52.3134 23.9192 50.2588 23.9192C48.2044 23.919 46.6037 22.3291 46.6035 20.4465C46.6035 18.5638 48.2042 16.9731 50.2588 16.9729Z" fill="#72EDF2" stroke="#72EDF2" stroke-width="1.85991"/>
<path d="M35.585 29.3022C37.6397 29.3022 39.2402 30.893 39.2402 32.7759C39.24 34.6586 37.6396 36.2485 35.585 36.2485C33.5305 36.2484 31.9299 34.6585 31.9297 32.7759C31.9297 30.8931 33.5304 29.3024 35.585 29.3022Z" fill="#72EDF2" stroke="#72EDF2" stroke-width="1.85991"/>
</svg>
