<svg width="60" height="60" viewBox="0 0 60 60" fill="none" xmlns="http://www.w3.org/2000/svg">
<path d="M30.5254 13C31.1953 13 31.7391 13.543 31.7393 14.2129C31.7393 14.6186 31.5392 14.977 31.2334 15.1973L32.3477 23.1904C35.674 25.1192 35.996 27.767 36 27.8008H22C22.3033 24.9014 25.0203 23.2045 25.043 23.1904L26.1572 15.1963C25.8519 14.976 25.6523 14.6182 25.6523 14.2129C25.6525 13.5431 26.1954 13.0001 26.8652 13H30.5254Z" fill="#3A3ADB"/>
<rect x="22" y="28.6746" width="13.9998" height="7.42499" fill="#3A3ADB"/>
<path d="M22 36.9246H35.9998V43.3525C35.9998 44.8144 34.8146 45.9996 33.3527 45.9996H24.6471C23.1851 45.9996 22 44.8144 22 43.3525V36.9246Z" fill="#3A3ADB"/>
<circle cx="29.5" cy="29.5" r="23.5" stroke="#72EDF2" stroke-width="6"/>
<rect x="13.5703" y="10" width="50.0791" height="6.46341" rx="3.23171" transform="rotate(45 13.5703 10)" fill="#3A3ADB"/>
<rect x="13.5703" y="10" width="50.0791" height="6.46341" rx="3.23171" transform="rotate(45 13.5703 10)" fill="#72EDF2"/>
</svg>
