<svg width="60" height="60" viewBox="0 0 60 60" fill="none" xmlns="http://www.w3.org/2000/svg">
<path d="M17.6605 24.2568C17.2624 24.5265 17.0013 24.983 17.0013 25.5C17.0013 26.3284 17.6729 27 18.5013 27H20.4036L25.4036 32H18.5023C17.6738 32 17.0023 32.6716 17.0023 33.5C17.0023 34.3284 17.6738 35 18.5023 35H28.4036L41.0804 47.6768C41.2173 47.8136 41.3614 47.9392 41.5101 48.0557C38.2511 50.1078 34.3939 51.2968 30.2581 51.2969C26.8101 51.2969 23.5549 50.4714 20.679 49.0078L10.2532 50.3125C8.6736 50.5101 7.50707 48.8725 8.21027 47.4443L11.7161 40.3252C10.0555 37.3059 9.10968 33.8378 9.10968 30.1484C9.10971 26.0258 10.2902 22.1792 12.3304 18.9268L17.6605 24.2568ZM30.2581 9C41.938 9.00011 51.4065 18.4685 51.4066 30.1484C51.4066 34.3212 50.1967 38.211 48.1107 41.4883C47.9903 41.333 47.8597 41.1826 47.7171 41.04L41.6771 35H42.5023C43.3305 34.9998 44.0023 34.3283 44.0023 33.5C44.0023 32.6717 43.3305 32.0002 42.5023 32H38.6771L33.6771 27H42.5013C43.3295 26.9998 44.0013 26.3283 44.0013 25.5C44.0013 24.6717 43.3295 24.0002 42.5013 24H30.6771L18.9505 12.2734C22.2209 10.2003 26.0994 9 30.2581 9Z" fill="#3A3ADB"/>
<rect x="12.5703" y="8.0127" width="57.0578" height="6.46341" rx="3.23171" transform="rotate(45 12.5703 8.0127)" fill="#72EDF2"/>
</svg>
