<svg width="60" height="60" viewBox="0 0 60 60" fill="none" xmlns="http://www.w3.org/2000/svg">
<path d="M21.9385 14C22.3449 14.0001 22.7376 14.147 23.0439 14.4141L27.748 18.5176H48.0693C48.9987 18.5176 49.752 19.2708 49.752 20.2002V30.7744C48.5047 29.6708 46.8656 29 45.0693 29C41.1653 29.0004 38.0002 32.1652 38 36.0693C38 37.1893 38.2619 38.2484 38.7256 39.1895C36.1854 40.5086 34.2459 42.8244 33.4268 45.6191H7.68262C6.75347 45.6191 6.00025 44.8656 6 43.9365V15.6826C6 14.7533 6.75332 14.0001 7.68262 14H21.9385Z" fill="#3A3ADB"/>
<path d="M45.999 32C49.1226 32.0002 51.6543 34.5134 51.6543 37.6133C51.6542 39.4323 50.7814 41.0476 49.4297 42.0732C51.5541 43.0065 53.2201 44.7793 54 46.9678H38C38.7798 44.7802 40.4441 43.0077 42.5674 42.0742C41.2155 41.0486 40.3429 39.4324 40.3428 37.6133C40.3428 34.5133 42.8753 32 45.999 32Z" fill="#72EDF2"/>
</svg>
