<svg width="60" height="60" viewBox="0 0 60 60" fill="none" xmlns="http://www.w3.org/2000/svg">
<path d="M15.9131 23.9844C20.344 14.9386 31.2646 6.51745 46.2471 13.7041C59.412 20.0193 60.4937 37.9363 53.0537 47.7442L53.042 47.7403H51.0625L51.5596 47.2432C53.553 45.2495 53.553 42.0162 51.5596 40.0225C50.1234 38.5864 48.0437 38.1845 46.248 38.8174V33.4219C46.248 30.6026 43.9618 28.3169 41.1426 28.3165C38.3229 28.3165 36.0371 30.6023 36.0371 33.4219V38.8174C34.2412 38.184 32.1611 38.5862 30.7246 40.0225C28.7931 41.9541 28.7329 45.0486 30.5439 47.0528L30.7246 47.2432L31.2217 47.7403H17.3164V47.7432C17.2196 47.7432 17.1209 47.7414 17.0205 47.7403H15.6143V47.6856C10.2375 47.3358 2.00031 45.153 2 35.9825C1.99999 26.1906 11.3907 23.4429 15.9131 23.9844Z" fill="#3A3ADB"/>
<path d="M41.1413 33.4219V50.44M41.1413 50.44L47.9485 43.6328M41.1413 50.44L34.334 43.6328" stroke="#72EDF2" stroke-width="5.10542" stroke-linecap="round"/>
</svg>
