<svg width="60" height="60" viewBox="0 0 60 60" fill="none" xmlns="http://www.w3.org/2000/svg">
<path d="M44.9541 12C49.2675 12.0001 52.7646 15.4971 52.7646 19.8105C52.7646 22.3417 51.5591 24.5904 49.6924 26.0176C52.6249 27.3162 54.9239 29.7822 56.001 32.8262H41.6074C41.7307 32.2167 41.7968 31.5863 41.7969 30.9404C41.7968 27.8341 40.3016 25.0764 37.9912 23.3496C37.4496 22.2873 37.1436 21.0849 37.1436 19.8105C37.1436 15.4971 40.6406 12.0001 44.9541 12Z" fill="#72EDF2"/>
<path d="M15.0479 12C19.361 12.0004 22.8574 15.4973 22.8574 19.8105C22.8574 21.0858 22.5502 22.2887 22.0078 23.3516C19.6988 25.0785 18.2042 27.8352 18.2041 30.9404C18.2041 31.5863 18.2703 32.2167 18.3936 32.8262H4C5.07691 29.7822 7.37632 27.3163 10.3086 26.0176C8.44205 24.5904 7.23736 22.3416 7.2373 19.8105C7.2373 15.497 10.7343 12 15.0479 12Z" fill="#72EDF2"/>
<path d="M30.0205 23.0483C35.2505 23.0485 39.49 27.2891 39.4902 32.519C39.4902 35.5875 38.0291 38.3129 35.7666 40.0435C39.3228 41.6182 42.1106 44.6107 43.416 48.3032H16.625C17.9303 44.6109 20.7178 41.6184 24.2734 40.0435C22.0111 38.3129 20.5498 35.5873 20.5498 32.519C20.55 27.289 24.7904 23.0483 30.0205 23.0483Z" fill="#3A3ADB"/>
</svg>
