<svg width="60" height="60" viewBox="0 0 60 60" fill="none" xmlns="http://www.w3.org/2000/svg">
<circle cx="39.5762" cy="8.58023" r="5.58023" fill="#3A3ADB"/>
<rect x="50.476" y="55.5669" width="46.0945" height="6.91962" rx="3.45981" transform="rotate(-165 50.476 55.5669)" fill="#72EDF2" stroke="#72EDF2" stroke-width="3.1887"/>
<path d="M20.3139 14.3643C20.7698 12.6634 22.5182 11.6536 24.2192 12.1094L53.2964 19.9014C54.9974 20.3572 56.007 22.1056 55.5512 23.8067C55.0953 25.5076 53.3469 26.5173 51.646 26.0616L37.187 22.1866L34.0766 27.3936L41.8764 29.4844C43.4798 29.9142 44.4675 31.4923 44.1938 33.0967C44.2129 33.6863 44.0725 34.288 43.7475 34.8321L37.7592 44.8575C36.8561 46.3691 34.898 46.8621 33.3862 45.959C31.8747 45.056 31.381 43.0987 32.2837 41.587L36.4389 34.6299L30.6772 33.086L25.9233 41.045C25.0201 42.5567 23.0621 43.0496 21.5503 42.1465C20.0388 41.2433 19.5457 39.2862 20.4487 37.7745L30.7837 20.4707L22.5678 18.2696C20.8671 17.8136 19.8582 16.0652 20.3139 14.3643Z" fill="#3A3ADB"/>
</svg>
