<svg width="60" height="60" viewBox="0 0 60 60" fill="none" xmlns="http://www.w3.org/2000/svg">
<path d="M28.7079 11.0014C28.7079 11.0014 12.9745 10.6112 7.35049 22.9772C6.43877 24.9819 8.09151 27.0488 10.2938 27.0488H48.6786C50.8897 27.0488 52.4236 25.0081 51.3737 23.0622C48.8094 18.3096 42.6067 11.0013 28.7079 11.0014Z" fill="#3A3ADB"/>
<path d="M49.5459 29.1953C50.8207 29.1955 51.8545 30.229 51.8545 31.5039C51.8544 32.7787 50.8207 33.8123 49.5459 33.8125H47.0723C46.5998 34.888 45.327 35.6582 43.8301 35.6582C42.4456 35.6582 41.2523 34.9996 40.707 34.0498C40.1876 34.4724 39.4674 34.7354 38.6709 34.7354C37.7349 34.7352 36.9057 34.3717 36.3828 33.8125H9.45508C8.18025 33.8123 7.14653 32.7788 7.14648 31.5039C7.14648 30.229 8.18022 29.1955 9.45508 29.1953H49.5459Z" fill="#72EDF2"/>
<path d="M11.0881 42.6582C11.6112 42.6582 12.1191 42.8369 12.5265 43.165L13.8 44.1904C14.6395 44.8666 15.8364 44.8665 16.6759 44.1904L17.9494 43.165C18.3568 42.837 18.8648 42.6583 19.3879 42.6582H49.5529C50.186 42.6582 50.7135 43.1773 50.5978 43.7998C49.9916 47.0623 46.8553 48.0132 46.2238 48.1729C46.1503 48.1914 46.075 48.1982 45.9992 48.1982H12.5187C12.3721 48.1982 12.2238 48.1702 12.089 48.1123C9.16602 46.8567 8.45189 44.8332 8.29899 43.6357C8.2277 43.0753 8.70172 42.6582 9.26677 42.6582H11.0881Z" fill="#3A3ADB"/>
<path d="M35.3516 35.9268C35.9791 36.4863 36.9749 36.8505 38.0986 36.8506C38.8443 36.8506 39.5333 36.6886 40.0967 36.418C40.9281 37.2383 42.2898 37.7742 43.8291 37.7744C45.6584 37.7744 47.2378 37.0188 47.9736 35.9268H49.5459C50.8207 35.927 51.8544 36.9606 51.8545 38.2354C51.8544 39.5102 50.8207 40.5437 49.5459 40.5439H19.4189C18.896 40.544 18.3888 40.7228 17.9814 41.0508L16.708 42.0762C15.8685 42.7521 14.6715 42.7521 13.832 42.0762L12.5596 41.0508C12.1521 40.7226 11.6443 40.5439 11.1211 40.5439H9.45508C8.18054 40.5435 7.14657 39.51 7.14648 38.2354C7.14658 36.9607 8.18055 35.9272 9.45508 35.9268H35.3516Z" fill="#3A3ADB"/>
</svg>
