<svg width="60" height="60" viewBox="0 0 60 60" fill="none" xmlns="http://www.w3.org/2000/svg">
<path d="M19.9605 22.7677C23.8616 18.9402 30.9152 19.8077 35.7154 24.7052C40.5153 29.6029 41.2444 36.6765 37.3433 40.504C36.3619 41.4668 35.1808 42.1309 33.8863 42.5089C32.919 42.7913 32.2061 43.7031 32.2418 44.7101C32.3458 47.6548 31.4496 50.3627 29.4771 52.298C24.9257 56.7629 16.3781 55.4253 10.3853 49.3107C4.39244 43.196 3.22305 34.6191 7.77398 30.1534C9.80805 28.1577 12.6412 27.321 15.6871 27.5519C16.6906 27.6277 17.6274 26.9525 17.9498 25.9992C18.3599 24.7857 19.0271 23.6836 19.9605 22.7677ZM13.4478 39.9913C13.0181 39.5617 12.3208 39.5617 11.8912 39.9913C11.4617 40.4209 11.4619 41.1173 11.8912 41.547L17.8843 47.5402C18.314 47.9695 19.0104 47.9697 19.44 47.5402C19.8696 47.1106 19.8694 46.4142 19.44 45.9845L13.4478 39.9913Z" fill="#3A3ADB"/>
<rect x="45.7787" y="6.21847" width="12.7311" height="1.72249" rx="0.861244" transform="rotate(45 45.7787 6.21847)" fill="#93959D" stroke="#72EDF2" stroke-width="1.72249"/>
<rect x="41.0275" y="14.6957" width="7.07715" height="1.10023" rx="0.550114" transform="rotate(45 41.0275 14.6957)" fill="#93959D" stroke="#72EDF2" stroke-width="1.10023"/>
<rect x="33.5552" y="22.7782" width="6.07718" height="1.10023" rx="0.550114" transform="rotate(45 33.5552 22.7782)" fill="#93959D" stroke="#72EDF2" stroke-width="1.10023"/>
<rect x="1.06686" width="30.5519" height="1.48245" rx="0.741226" transform="matrix(0.719658 -0.694329 0.719658 0.694329 24.2991 30.9378)" fill="#93959D" stroke="#72EDF2" stroke-width="1.48245"/>
<rect x="1.06686" width="30.5519" height="1.48245" rx="0.741226" transform="matrix(0.719658 -0.694329 0.719658 0.694329 28.263 34.6829)" fill="#93959D" stroke="#72EDF2" stroke-width="1.48245"/>
<circle cx="24.8056" cy="35.0214" r="4.30622" stroke="#72EDF2" stroke-width="3.44498"/>
</svg>
