<svg width="60" height="60" viewBox="0 0 60 60" fill="none" xmlns="http://www.w3.org/2000/svg">
<circle cx="30.3631" cy="30.3628" r="20.3631" fill="#3A3ADB"/>
<path d="M24.0714 14.2459C23.21 14.3784 18.72 15.27 16.78 19.6666C16.7434 19.7497 16.7384 19.8446 16.7653 19.9313L18.3957 25.1848C18.4315 25.3002 18.5196 25.392 18.6334 25.4327L23.6384 27.2202C23.7591 27.2633 23.8933 27.2434 23.9963 27.1671L28.8628 23.5623C28.9606 23.4898 29.0183 23.3753 29.0183 23.2535V17.8808C29.0183 17.7572 28.9589 17.6412 28.8586 17.569L24.335 14.312C24.2582 14.2567 24.1649 14.2315 24.0714 14.2459Z" fill="#72EDF2" stroke="#72EDF2" stroke-width="0.768417" stroke-linecap="round"/>
<path d="M44.0953 20.176C43.7444 19.3783 41.7211 15.272 36.9722 14.5361C36.8825 14.5222 36.7895 14.5419 36.7127 14.5903L32.0603 17.5249C31.958 17.5893 31.8921 17.6982 31.8823 17.8187L31.4511 23.1157C31.4407 23.2435 31.4947 23.368 31.595 23.4477L36.3365 27.2154C36.4318 27.2911 36.5574 27.3172 36.675 27.2857L41.8647 25.8951C41.9841 25.8631 42.0808 25.7757 42.1246 25.6602L44.0998 20.4477C44.1333 20.3592 44.1335 20.2626 44.0953 20.176Z" fill="#72EDF2" stroke="#72EDF2" stroke-width="0.768417" stroke-linecap="round"/>
<path d="M44.6268 40.7221C45.3065 40.1767 48.7492 37.1596 48.2309 32.3819C48.2211 32.2917 48.1779 32.207 48.1113 32.1454L44.0726 28.411C43.9839 28.3289 43.8617 28.2934 43.7428 28.3151L38.5146 29.2696C38.3885 29.2926 38.2822 29.3769 38.2312 29.4945L35.8191 35.0496C35.7706 35.1613 35.7779 35.2893 35.8388 35.3948L38.5252 40.0477C38.5869 40.1547 38.6964 40.2255 38.8194 40.2379L44.3654 40.7967C44.4596 40.8062 44.5529 40.7814 44.6268 40.7221Z" fill="#72EDF2" stroke="#72EDF2" stroke-width="0.768417" stroke-linecap="round"/>
<path d="M25.9717 47.7237C26.7529 48.1099 30.9406 49.9588 35.0539 47.4738C35.1315 47.4269 35.1902 47.352 35.2179 47.2656L36.9005 42.0286C36.9374 41.9136 36.9181 41.7878 36.8483 41.6891L33.7777 37.3513C33.7036 37.2467 33.5823 37.1859 33.4542 37.1892L27.4 37.3452C27.2783 37.3484 27.1653 37.409 27.0954 37.5087L24.0096 41.907C23.9387 42.0081 23.9207 42.1372 23.9613 42.2539L25.7938 47.5182C25.825 47.6076 25.8869 47.6818 25.9717 47.7237Z" fill="#72EDF2" stroke="#72EDF2" stroke-width="0.768417" stroke-linecap="round"/>
<path d="M12.5522 32.0255C12.427 32.8879 11.9663 37.4424 15.6033 40.5835C15.672 40.6428 15.7613 40.6753 15.8521 40.675L21.3527 40.6524C21.4735 40.6519 21.5871 40.5945 21.6593 40.4976L24.8325 36.2342C24.909 36.1314 24.9292 35.9972 24.8864 35.8764L22.8625 30.1684C22.8218 30.0537 22.7292 29.965 22.6128 29.9294L17.4749 28.358C17.3568 28.3218 17.2284 28.3447 17.13 28.4195L12.6924 31.7927C12.6171 31.85 12.5658 31.9318 12.5522 32.0255Z" fill="#72EDF2" stroke="#72EDF2" stroke-width="0.768417" stroke-linecap="round"/>
</svg>
