<svg width="60" height="60" viewBox="0 0 60 60" fill="none" xmlns="http://www.w3.org/2000/svg">
<path d="M25.2568 6C36.9368 6 46.4062 15.4685 46.4062 27.1484C46.4062 38.8285 36.9369 48.2969 25.2568 48.2969C21.8091 48.2968 18.5544 47.4713 15.6787 46.0078L5.25195 47.3125C3.67231 47.5099 2.50658 45.8725 3.20996 44.4443L6.71484 37.3262C5.05399 34.3067 4.10839 30.838 4.10839 27.1484C4.10848 15.4686 13.577 6.00024 25.2568 6ZM15.501 29C14.6727 29.0002 14.001 29.6717 14.001 30.5C14.001 31.3283 14.6727 31.9998 15.501 32H35.501C36.3294 32 37.001 31.3284 37.001 30.5C37.001 29.6716 36.3294 29 35.501 29H15.501ZM15.501 21C14.6727 21.0002 14.001 21.6717 14.001 22.5C14.001 23.3283 14.6727 23.9998 15.501 24H35.501C36.3294 24 37.001 23.3284 37.001 22.5C37.001 21.6716 36.3294 21 35.501 21H15.501Z" fill="#3A3ADB"/>
<path d="M41.5845 25C33.5297 25.0002 26.9997 31.53 26.9996 39.585C26.9996 47.64 33.5296 54.1697 41.5845 54.1699C43.9621 54.1699 46.2069 53.6009 48.19 52.5918L54.2398 53.3486C55.8193 53.5462 56.9857 51.9085 56.2828 50.4805L54.3736 46.6025C55.5185 44.5205 56.1705 42.1288 56.1705 39.585C56.1704 31.5299 49.6396 25 41.5845 25Z" fill="#72EDF2" fill-opacity="0.8"/>
</svg>
