<svg width="60" height="60" viewBox="0 0 60 60" fill="none" xmlns="http://www.w3.org/2000/svg">
<path d="M26.3389 13C35.9146 13.0002 43.6768 20.7631 43.6768 30.3389C43.6767 35.6131 41.3214 40.3366 37.6055 43.5166H49.9199C51.069 43.5166 52.001 44.4486 52.001 45.5977C52.0007 46.7466 51.0689 47.6777 49.9199 47.6777H24.9531C24.7033 47.6777 24.4641 47.6315 24.2422 47.5508C15.6551 46.5158 9.00014 39.205 9 30.3389C9 20.763 16.763 13 26.3389 13Z" fill="#3A3ADB"/>
<circle cx="35.675" cy="30.3389" r="4.00121" fill="#72EDF2"/>
<circle cx="17.0024" cy="30.3386" r="4.00121" fill="#72EDF2"/>
<circle cx="26.3386" cy="21.0024" r="4.00121" fill="#72EDF2"/>
<circle cx="26.3389" cy="39.675" r="4.00121" fill="#72EDF2"/>
</svg>
