<svg width="389" height="417" viewBox="0 0 389 417" fill="none" xmlns="http://www.w3.org/2000/svg">
<rect width="389" height="417" fill="#ECECFC"/>
<g opacity="0.8">
<ellipse cx="156.338" cy="218.436" rx="21.3377" ry="21.2968" fill="#3A3ADB" fill-opacity="0.5"/>
<ellipse cx="215.386" cy="162.256" rx="13.2812" ry="13.2557" fill="#72EDF2"/>
<path d="M211.788 163.492C213.71 156.331 221.085 152.082 228.26 154.001C235.434 155.92 239.691 163.28 237.768 170.44C235.846 177.601 228.472 181.85 221.298 179.931C220.192 179.636 219.155 179.209 218.199 178.676C210.95 178.949 204.462 183.745 202.53 190.94C202.445 191.256 202.372 191.573 202.306 191.889C203.021 195.357 202.959 199.039 201.978 202.691C201.503 204.462 200.837 206.13 200.009 207.681C201.19 211.344 205.288 213.709 209.754 213.095C211.868 212.804 213.72 211.89 215.101 210.603L220.146 214.418L202.871 237.175L196.017 231.991C198.1 229.635 199.184 226.46 198.726 223.148C198.259 219.769 196.286 216.959 193.556 215.263C187.948 219.548 180.48 221.281 173.131 219.315C160.565 215.955 153.109 203.063 156.475 190.521C159.842 177.98 172.759 170.537 185.324 173.897C187.478 174.473 189.482 175.33 191.306 176.417C196.871 178.79 203.367 177.808 207.601 173.428C210.045 170.901 211.329 167.663 211.484 164.326L211.607 164.255C211.66 164.001 211.72 163.746 211.788 163.492Z" fill="url(#paint0_linear_1597_47698)"/>
<ellipse cx="156.338" cy="218.436" rx="21.3377" ry="21.2968" fill="#3A3ADB" fill-opacity="0.2"/>
<path d="M224.707 207.682C241.091 207.682 254.434 220.847 254.979 237.295H254.999V266.537C254.999 267.897 253.897 268.999 252.537 268.999H224.778C224.755 268.999 224.731 269 224.707 269C224.683 269 224.659 268.999 224.636 268.999H223.676V268.979C207.424 268.429 194.416 254.924 194.416 238.341C194.416 221.408 207.978 207.682 224.707 207.682Z" fill="url(#paint1_linear_1597_47698)"/>
</g>
<defs>
<linearGradient id="paint0_linear_1597_47698" x1="211.541" y1="220.164" x2="211.541" y2="162.606" gradientUnits="userSpaceOnUse">
<stop stop-color="#72EDF2"/>
<stop offset="1" stop-color="#3A3ADB"/>
</linearGradient>
<linearGradient id="paint1_linear_1597_47698" x1="254.949" y1="266.971" x2="205.131" y2="215.025" gradientUnits="userSpaceOnUse">
<stop offset="0.0625" stop-color="#3A3ADB"/>
<stop offset="1" stop-color="#72EDF2"/>
</linearGradient>
</defs>
</svg>
