<svg width="28" height="28" viewBox="0 0 28 28" fill="none" xmlns="http://www.w3.org/2000/svg">
<mask id="path-1-inside-1_556_4998" fill="white">
<path d="M13.9998 2.33325C18.5549 2.33347 22.2478 6.25022 22.2478 11.0823C22.2477 13.8479 21.0365 16.3125 19.1477 17.9157C19.0821 17.9714 19.0951 18.077 19.1724 18.1148C22.143 19.5671 24.477 22.2319 25.6137 25.5109C25.6397 25.5862 25.5836 25.6643 25.5039 25.6643H2.49467C2.41504 25.6643 2.35887 25.5862 2.38495 25.5109C3.52155 22.2323 5.85618 19.5683 8.82628 18.1158C8.90356 18.078 8.91649 17.9724 8.8509 17.9167C6.96205 16.3134 5.75186 13.848 5.75175 11.0823C5.75178 6.25009 9.4445 2.33325 13.9998 2.33325Z"/>
</mask>
<path d="M13.9998 2.33325L13.9999 0.233252H13.9998V2.33325ZM22.2478 11.0823L24.3478 11.0824V11.0823L22.2478 11.0823ZM5.75175 11.0823L3.65175 11.0823V11.0824L5.75175 11.0823ZM8.82628 18.1158L9.74885 20.0023L8.82628 18.1158ZM8.8509 17.9167L7.49195 19.5177L8.8509 17.9167ZM2.38495 25.5109L4.36911 26.1988L2.38495 25.5109ZM25.6137 25.5109L23.6295 26.1987L25.6137 25.5109ZM19.1477 17.9157L17.7888 16.3147L19.1477 17.9157ZM19.1724 18.1148L20.0947 16.2282L19.1724 18.1148ZM13.9998 2.33325L13.9997 4.43325C17.2803 4.43341 20.1478 7.29177 20.1478 11.0823L22.2478 11.0823L24.3478 11.0823C24.3478 5.20868 19.8296 0.233531 13.9999 0.233252L13.9998 2.33325ZM22.2478 11.0823L20.1478 11.0822C20.1478 13.2292 19.209 15.1091 17.7888 16.3147L19.1477 17.9157L20.5067 19.5167C22.8639 17.5158 24.3477 14.4665 24.3478 11.0824L22.2478 11.0823ZM19.1724 18.1148L18.25 20.0014C20.7017 21.2 22.6669 23.4218 23.6295 26.1987L25.6137 25.5109L27.5978 24.8231C26.2871 21.0419 23.5842 17.9342 20.0947 16.2282L19.1724 18.1148ZM25.5039 25.6643V23.5643H2.49467V25.6643V27.7643H25.5039V25.6643ZM2.38495 25.5109L4.36911 26.1988C5.33149 23.4227 7.29713 21.2013 9.74885 20.0023L8.82628 18.1158L7.90371 16.2293C4.41523 17.9353 1.71162 21.042 0.400804 24.8231L2.38495 25.5109ZM8.8509 17.9167L10.2099 16.3157C8.79011 15.1106 7.85183 13.2301 7.85175 11.0822L5.75175 11.0823L3.65175 11.0824C3.65188 14.4659 5.134 17.5163 7.49195 19.5177L8.8509 17.9167ZM5.75175 11.0823L7.85175 11.0823C7.85177 7.29153 10.7192 4.43325 13.9998 4.43325V2.33325V0.233252C8.16978 0.233252 3.65179 5.20865 3.65175 11.0823L5.75175 11.0823ZM8.82628 18.1158L9.74885 20.0023C11.195 19.295 11.4225 17.345 10.2099 16.3157L8.8509 17.9167L7.49195 19.5177C6.41049 18.5998 6.61209 16.8609 7.90371 16.2293L8.82628 18.1158ZM2.49467 25.6643V23.5643C3.84401 23.5643 4.82088 24.8956 4.36911 26.1988L2.38495 25.5109L0.400804 24.8231C-0.103142 26.2767 0.986065 27.7643 2.49467 27.7643V25.6643ZM25.6137 25.5109L23.6295 26.1987C23.1778 24.8955 24.1546 23.5643 25.5039 23.5643V25.6643V27.7643C27.0125 27.7643 28.1017 26.2768 27.5978 24.8231L25.6137 25.5109ZM19.1477 17.9157L17.7888 16.3147C16.576 17.3441 16.8037 19.2943 18.25 20.0014L19.1724 18.1148L20.0947 16.2282C21.3864 16.8597 21.5883 18.5986 20.5067 19.5167L19.1477 17.9157Z" fill="#5E6068" mask="url(#path-1-inside-1_556_4998)"/>
</svg>
