<svg width="28" height="28" viewBox="0 0 28 28" fill="none" xmlns="http://www.w3.org/2000/svg">
<mask id="path-1-inside-1_1573_15013" fill="white">
<path d="M13.9998 2.33325C18.5549 2.33347 22.2478 6.25022 22.2478 11.0823C22.2477 13.8479 21.0365 16.3125 19.1477 17.9157C19.0821 17.9714 19.0951 18.077 19.1723 18.1148C22.143 19.5671 24.477 22.2319 25.6136 25.5109C25.6397 25.5862 25.5836 25.6643 25.5039 25.6643H2.49465C2.41502 25.6643 2.35886 25.5862 2.38494 25.5109C3.52154 22.2323 5.85616 19.5683 8.82627 18.1158C8.90355 18.078 8.91647 17.9724 8.85088 17.9167C6.96204 16.3134 5.75184 13.848 5.75173 11.0823C5.75177 6.25009 9.44449 2.33325 13.9998 2.33325Z"/>
</mask>
<path d="M13.9998 2.33325L13.9999 0.233252H13.9998V2.33325ZM22.2478 11.0823L24.3478 11.0824V11.0823L22.2478 11.0823ZM5.75173 11.0823L3.65173 11.0823V11.0824L5.75173 11.0823ZM8.82627 18.1158L9.74884 20.0023L8.82627 18.1158ZM8.85088 17.9167L7.49193 19.5177L8.85088 17.9167ZM2.38494 25.5109L4.36909 26.1988L2.38494 25.5109ZM25.6136 25.5109L23.6295 26.1987L25.6136 25.5109ZM19.1477 17.9157L17.7887 16.3147L19.1477 17.9157ZM19.1723 18.1148L20.0947 16.2282L19.1723 18.1148ZM13.9998 2.33325L13.9997 4.43325C17.2803 4.43341 20.1478 7.29177 20.1478 11.0823L22.2478 11.0823L24.3478 11.0823C24.3478 5.20868 19.8295 0.233531 13.9999 0.233252L13.9998 2.33325ZM22.2478 11.0823L20.1478 11.0822C20.1477 13.2292 19.209 15.1091 17.7887 16.3147L19.1477 17.9157L20.5067 19.5167C22.8639 17.5158 24.3477 14.4665 24.3478 11.0824L22.2478 11.0823ZM19.1723 18.1148L18.25 20.0014C20.7017 21.2 22.6669 23.4218 23.6295 26.1987L25.6136 25.5109L27.5978 24.8231C26.2871 21.0419 23.5842 17.9342 20.0947 16.2282L19.1723 18.1148ZM25.5039 25.6643V23.5643H2.49465V25.6643V27.7643H25.5039V25.6643ZM2.38494 25.5109L4.36909 26.1988C5.33148 23.4227 7.29711 21.2013 9.74884 20.0023L8.82627 18.1158L7.9037 16.2293C4.41521 17.9353 1.7116 21.042 0.400788 24.8231L2.38494 25.5109ZM8.85088 17.9167L10.2098 16.3157C8.79009 15.1106 7.85182 13.2301 7.85173 11.0822L5.75173 11.0823L3.65173 11.0824C3.65187 14.4659 5.13399 17.5163 7.49193 19.5177L8.85088 17.9167ZM5.75173 11.0823L7.85173 11.0823C7.85176 7.29153 10.7192 4.43325 13.9998 4.43325V2.33325V0.233252C8.16976 0.233252 3.65177 5.20865 3.65173 11.0823L5.75173 11.0823ZM8.82627 18.1158L9.74884 20.0023C11.195 19.295 11.4225 17.345 10.2098 16.3157L8.85088 17.9167L7.49193 19.5177C6.41047 18.5998 6.61208 16.8609 7.9037 16.2293L8.82627 18.1158ZM2.49465 25.6643V23.5643C3.84399 23.5643 4.82087 24.8956 4.36909 26.1988L2.38494 25.5109L0.400788 24.8231C-0.103157 26.2767 0.986049 27.7643 2.49465 27.7643V25.6643ZM25.6136 25.5109L23.6295 26.1987C23.1777 24.8955 24.1546 23.5643 25.5039 23.5643V25.6643V27.7643C27.0125 27.7643 28.1017 26.2768 27.5978 24.8231L25.6136 25.5109ZM19.1477 17.9157L17.7887 16.3147C16.576 17.3441 16.8037 19.2943 18.25 20.0014L19.1723 18.1148L20.0947 16.2282C21.3864 16.8597 21.5882 18.5986 20.5067 19.5167L19.1477 17.9157Z" fill="#3A3ADB" mask="url(#path-1-inside-1_1573_15013)"/>
</svg>
