<svg width="48" height="48" viewBox="0 0 48 48" fill="none" xmlns="http://www.w3.org/2000/svg">
<mask id="path-1-inside-1_565_3202" fill="white">
<path d="M31.7013 36.8462C31.7011 41.1035 28.2497 44.5552 23.9923 44.5552C19.735 44.5551 16.2835 41.1035 16.2833 36.8462C16.2833 36.7341 16.2864 36.6222 16.2911 36.5112H31.6935C31.6982 36.6222 31.7013 36.7341 31.7013 36.8462Z"/>
</mask>
<path d="M31.7013 36.8462L34.7281 36.8463V36.8462H31.7013ZM23.9923 44.5552L23.9923 47.582H23.9923V44.5552ZM16.2833 36.8462H13.2565V36.8463L16.2833 36.8462ZM16.2911 36.5112V33.4844H13.3908L13.2671 36.3821L16.2911 36.5112ZM31.6935 36.5112L34.7175 36.3821L34.5938 33.4844H31.6935V36.5112ZM31.7013 36.8462L28.6745 36.846C28.6744 39.432 26.5779 41.5284 23.9923 41.5284V44.5552V47.582C29.9215 47.582 34.7278 42.7751 34.7281 36.8463L31.7013 36.8462ZM23.9923 44.5552L23.9923 41.5284C21.4068 41.5283 19.3103 39.4319 19.3101 36.846L16.2833 36.8462L13.2565 36.8463C13.2568 42.7751 18.0632 47.5819 23.9923 47.582L23.9923 44.5552ZM16.2833 36.8462H19.3101C19.3101 36.7885 19.3117 36.7213 19.3152 36.6404L16.2911 36.5112L13.2671 36.3821C13.2611 36.523 13.2565 36.6797 13.2565 36.8462H16.2833ZM16.2911 36.5112V39.538H31.6935V36.5112V33.4844H16.2911V36.5112ZM31.6935 36.5112L28.6694 36.6404C28.6729 36.7213 28.6745 36.7885 28.6745 36.8462H31.7013H34.7281C34.7281 36.6797 34.7236 36.523 34.7175 36.3821L31.6935 36.5112Z" fill="#3A3ADB" mask="url(#path-1-inside-1_565_3202)"/>
<path d="M23.5798 5.40137C24.627 5.38013 25.682 5.46097 26.7195 5.64746C26.3808 6.40276 26.1912 7.23973 26.1912 8.12109C26.1912 8.29266 26.1996 8.46291 26.2136 8.63086C25.3733 8.4775 24.5094 8.40916 23.6414 8.42676C20.8636 8.4832 18.1552 9.41865 16.1667 11.1201C14.2087 12.7957 12.8875 15.2618 12.8875 18.5752V26.9062C12.8874 27.4391 12.7342 28.1721 12.5681 28.8428C12.3886 29.5674 12.1455 30.4015 11.8826 31.2178C11.6194 32.0347 11.3308 32.853 11.0574 33.5449C10.8013 34.1929 10.5099 34.8583 10.2302 35.2783L9.64624 36.1543H38.0623L35.2996 32.0059C34.9875 31.5373 34.821 30.9861 34.8259 30.417L34.8611 24.5635C34.8685 22.1069 34.8636 19.6376 34.823 18.6357C34.7497 16.8282 34.3456 15.289 33.7058 13.9961C34.7177 13.7453 35.6278 13.2397 36.3669 12.5518C37.2262 14.2505 37.7554 16.2407 37.8474 18.5137C37.9315 20.59 37.8693 28.4122 37.8523 30.3779L40.7908 34.79C42.0411 36.6674 40.6947 39.1814 38.4392 39.1816H9.26929C7.01369 39.1814 5.66824 36.6674 6.9187 34.79L7.71069 33.6006C7.79079 33.4802 7.98013 33.0951 8.24194 32.4326C8.48651 31.8137 8.75404 31.059 9.00171 30.29C9.24946 29.5208 9.47199 28.7556 9.63062 28.1152C9.71002 27.7946 9.77063 27.5165 9.8103 27.293C9.83 27.1819 9.84322 27.0913 9.85132 27.0205C9.85532 26.9855 9.85775 26.958 9.85913 26.9375C9.8598 26.9274 9.85991 26.9196 9.86011 26.9141V18.5752C9.86012 14.365 11.5783 11.0629 14.199 8.82031C16.7891 6.604 20.1989 5.47008 23.5798 5.40137Z" fill="#3A3ADB"/>
<circle cx="32.8506" cy="7.51684" r="4.23754" fill="#3A3ADB"/>
</svg>
