<svg width="48" height="48" viewBox="0 0 48 48" fill="none" xmlns="http://www.w3.org/2000/svg">
<mask id="path-1-inside-1_565_3201" fill="white">
<path d="M31.8197 35.8196C31.8197 40.0771 28.3682 43.5285 24.1107 43.5286C19.8532 43.5286 16.4017 40.0771 16.4017 35.8196C16.4017 35.7073 16.4048 35.5957 16.4095 35.4846H31.8119C31.8166 35.5957 31.8197 35.7073 31.8197 35.8196Z"/>
</mask>
<path d="M31.8197 35.8196H34.8465L34.8465 35.8195L31.8197 35.8196ZM24.1107 43.5286V46.5554H24.1107L24.1107 43.5286ZM16.4017 35.8196L13.3749 35.8195V35.8196H16.4017ZM16.4095 35.4846V32.4578H13.5095L13.3855 35.3552L16.4095 35.4846ZM31.8119 35.4846L34.8359 35.3552L34.712 32.4578H31.8119V35.4846ZM31.8197 35.8196H28.7929C28.7929 38.4054 26.6966 40.5017 24.1107 40.5017L24.1107 43.5286L24.1107 46.5554C30.0399 46.5554 34.8465 41.7488 34.8465 35.8196H31.8197ZM24.1107 43.5286V40.5017C21.5249 40.5017 19.4285 38.4054 19.4285 35.8196H16.4017H13.3749C13.3749 41.7487 18.1815 46.5554 24.1107 46.5554V43.5286ZM16.4017 35.8196L19.4285 35.8197C19.4285 35.7616 19.4301 35.6946 19.4336 35.614L16.4095 35.4846L13.3855 35.3552C13.3794 35.4967 13.3749 35.6531 13.3749 35.8195L16.4017 35.8196ZM16.4095 35.4846V38.5114H31.8119V35.4846V32.4578H16.4095V35.4846ZM31.8119 35.4846L28.7878 35.614C28.7913 35.6946 28.7929 35.7616 28.7929 35.8197L31.8197 35.8196L34.8465 35.8195C34.8465 35.6531 34.842 35.4967 34.8359 35.3552L31.8119 35.4846Z" fill="#3A3ADB" mask="url(#path-1-inside-1_565_3201)"/>
<path d="M23.6976 4.37646C27.08 4.30779 30.5449 5.30316 33.2338 7.48975C35.9537 9.70175 37.7858 13.0598 37.9652 17.4888C38.0493 19.5654 37.9871 27.3875 37.9701 29.353L40.9086 33.7651C42.1591 35.6426 40.8128 38.1567 38.557 38.1567H9.38708C7.13181 38.1562 5.78646 35.6424 7.0365 33.7651L7.82849 32.5757C7.9085 32.4556 8.09785 32.0704 8.35974 31.4077C8.6043 30.7889 8.87184 30.034 9.11951 29.2651C9.36724 28.496 9.58979 27.7307 9.74841 27.0903C9.8278 26.7698 9.88842 26.4916 9.9281 26.2681C9.94778 26.1571 9.96101 26.0664 9.96912 25.9956C9.97311 25.9607 9.97555 25.9331 9.97693 25.9126C9.9776 25.9026 9.97771 25.8947 9.97791 25.8892V17.5503C9.97791 13.3403 11.6963 10.038 14.3168 7.79541C16.9068 5.57905 20.3167 4.44524 23.6976 4.37646ZM23.7592 7.40186C20.9814 7.45837 18.2729 8.39369 16.2845 10.0952C14.3267 11.7708 13.0052 14.237 13.0052 17.5503V25.8813C13.0051 26.4142 12.852 27.1472 12.6859 27.8179C12.5064 28.5425 12.2633 29.3767 12.0004 30.1929C11.7372 31.0097 11.4486 31.8281 11.1752 32.52C10.9191 33.168 10.6277 33.8335 10.348 34.2534L9.76404 35.1294H38.1801L35.4174 30.981C35.1053 30.5125 34.9388 29.9611 34.9437 29.3921L34.9789 23.5386C34.9863 21.0821 34.9814 18.6128 34.9408 17.6108C34.7951 14.0163 33.3446 11.482 31.3236 9.83838C29.2713 8.16942 26.5359 7.34547 23.7592 7.40186Z" fill="#3A3ADB"/>
</svg>
