<svg width="40" height="40" viewBox="0 0 40 40" fill="none" xmlns="http://www.w3.org/2000/svg">
<path d="M33.75 7.5H6.24998C5.58694 7.5 4.95106 7.76339 4.48222 8.23223C4.01337 8.70107 3.74998 9.33696 3.74998 10V35C3.74716 35.4765 3.88187 35.9437 4.13795 36.3456C4.39404 36.7475 4.76062 37.0669 5.19373 37.2656C5.5247 37.4193 5.88508 37.4993 6.24998 37.5C6.83686 37.4986 7.40427 37.2894 7.85154 36.9094L7.86561 36.8984L12.9687 32.5H33.75C34.413 32.5 35.0489 32.2366 35.5177 31.7678C35.9866 31.2989 36.25 30.663 36.25 30V10C36.25 9.33696 35.9866 8.70107 35.5177 8.23223C35.0489 7.76339 34.413 7.5 33.75 7.5ZM33.75 30H12.5C12.1998 30.0002 11.9098 30.1083 11.6828 30.3047L6.24998 35V10H33.75V30ZM13.75 17.5C13.75 17.1685 13.8817 16.8505 14.1161 16.6161C14.3505 16.3817 14.6685 16.25 15 16.25H25C25.3315 16.25 25.6494 16.3817 25.8839 16.6161C26.1183 16.8505 26.25 17.1685 26.25 17.5C26.25 17.8315 26.1183 18.1495 25.8839 18.3839C25.6494 18.6183 25.3315 18.75 25 18.75H15C14.6685 18.75 14.3505 18.6183 14.1161 18.3839C13.8817 18.1495 13.75 17.8315 13.75 17.5ZM13.75 22.5C13.75 22.1685 13.8817 21.8505 14.1161 21.6161C14.3505 21.3817 14.6685 21.25 15 21.25H25C25.3315 21.25 25.6494 21.3817 25.8839 21.6161C26.1183 21.8505 26.25 22.1685 26.25 22.5C26.25 22.8315 26.1183 23.1495 25.8839 23.3839C25.6494 23.6183 25.3315 23.75 25 23.75H15C14.6685 23.75 14.3505 23.6183 14.1161 23.3839C13.8817 23.1495 13.75 22.8315 13.75 22.5Z" fill="#3A3ADB"/>
</svg>
