<svg width="40" height="40" viewBox="0 0 40 40" fill="none" xmlns="http://www.w3.org/2000/svg">
<path d="M19.625 4C15.4824 4.00455 11.5108 5.65221 8.58148 8.58148C5.65221 11.5108 4.00455 15.4824 4 19.625V32.75C4 33.413 4.26339 34.0489 4.73223 34.5178C5.20107 34.9866 5.83696 35.25 6.5 35.25H19.625C23.769 35.25 27.7433 33.6038 30.6735 30.6735C33.6038 27.7433 35.25 23.769 35.25 19.625C35.25 15.481 33.6038 11.5067 30.6735 8.57646C27.7433 5.6462 23.769 4 19.625 4ZM19.625 32.75H6.5V19.625C6.5 17.0291 7.26977 14.4915 8.71196 12.3331C10.1542 10.1747 12.204 8.49248 14.6023 7.49908C17.0006 6.50568 19.6396 6.24576 22.1856 6.75219C24.7316 7.25862 27.0702 8.50866 28.9058 10.3442C30.7413 12.1798 31.9914 14.5184 32.4978 17.0644C33.0042 19.6104 32.7443 22.2494 31.7509 24.6477C30.7575 27.046 29.0753 29.0958 26.9169 30.538C24.7585 31.9802 22.2209 32.75 19.625 32.75Z" fill="#2B2C31"/>
</svg>
