<svg width="36" height="36" viewBox="0 0 36 36" fill="none" xmlns="http://www.w3.org/2000/svg">
<path d="M11.25 9C11.25 8.70163 11.3685 8.41548 11.5795 8.20451C11.7905 7.99353 12.0766 7.875 12.375 7.875H30.375C30.6734 7.875 30.9595 7.99353 31.1705 8.20451C31.3815 8.41548 31.5 8.70163 31.5 9C31.5 9.29837 31.3815 9.58452 31.1705 9.7955C30.9595 10.0065 30.6734 10.125 30.375 10.125H12.375C12.0766 10.125 11.7905 10.0065 11.5795 9.7955C11.3685 9.58452 11.25 9.29837 11.25 9ZM30.375 16.875H12.375C12.0766 16.875 11.7905 16.9935 11.5795 17.2045C11.3685 17.4155 11.25 17.7016 11.25 18C11.25 18.2984 11.3685 18.5845 11.5795 18.7955C11.7905 19.0065 12.0766 19.125 12.375 19.125H30.375C30.6734 19.125 30.9595 19.0065 31.1705 18.7955C31.3815 18.5845 31.5 18.2984 31.5 18C31.5 17.7016 31.3815 17.4155 31.1705 17.2045C30.9595 16.9935 30.6734 16.875 30.375 16.875ZM30.375 25.875H12.375C12.0766 25.875 11.7905 25.9935 11.5795 26.2045C11.3685 26.4155 11.25 26.7016 11.25 27C11.25 27.2984 11.3685 27.5845 11.5795 27.7955C11.7905 28.0065 12.0766 28.125 12.375 28.125H30.375C30.6734 28.125 30.9595 28.0065 31.1705 27.7955C31.3815 27.5845 31.5 27.2984 31.5 27C31.5 26.7016 31.3815 26.4155 31.1705 26.2045C30.9595 25.9935 30.6734 25.875 30.375 25.875ZM6.1875 7.3125C5.85374 7.3125 5.52748 7.41147 5.24998 7.5969C4.97247 7.78232 4.75618 8.04587 4.62845 8.35422C4.50073 8.66257 4.46731 9.00187 4.53243 9.32922C4.59754 9.65656 4.75826 9.95724 4.99426 10.1932C5.23026 10.4292 5.53094 10.59 5.85829 10.6551C6.18563 10.7202 6.52493 10.6868 6.83328 10.559C7.14163 10.4313 7.40518 10.215 7.59061 9.93752C7.77603 9.66002 7.875 9.33376 7.875 9C7.875 8.55245 7.69721 8.12322 7.38074 7.80676C7.06428 7.49029 6.63505 7.3125 6.1875 7.3125ZM6.1875 16.3125C5.85374 16.3125 5.52748 16.4115 5.24998 16.5969C4.97247 16.7823 4.75618 17.0459 4.62845 17.3542C4.50073 17.6626 4.46731 18.0019 4.53243 18.3292C4.59754 18.6566 4.75826 18.9572 4.99426 19.1932C5.23026 19.4292 5.53094 19.59 5.85829 19.6551C6.18563 19.7202 6.52493 19.6868 6.83328 19.559C7.14163 19.4313 7.40518 19.215 7.59061 18.9375C7.77603 18.66 7.875 18.3338 7.875 18C7.875 17.5524 7.69721 17.1232 7.38074 16.8068C7.06428 16.4903 6.63505 16.3125 6.1875 16.3125ZM6.1875 25.3125C5.85374 25.3125 5.52748 25.4115 5.24998 25.5969C4.97247 25.7823 4.75618 26.0459 4.62845 26.3542C4.50073 26.6626 4.46731 27.0019 4.53243 27.3292C4.59754 27.6566 4.75826 27.9572 4.99426 28.1932C5.23026 28.4292 5.53094 28.59 5.85829 28.6551C6.18563 28.7202 6.52493 28.6868 6.83328 28.559C7.14163 28.4313 7.40518 28.215 7.59061 27.9375C7.77603 27.66 7.875 27.3338 7.875 27C7.875 26.5524 7.69721 26.1232 7.38074 25.8068C7.06428 25.4903 6.63505 25.3125 6.1875 25.3125Z" fill="white"/>
</svg>
