<svg width="20" height="20" viewBox="0 0 20 20" fill="none" xmlns="http://www.w3.org/2000/svg">
<path d="M4.11385 4.23519L4.17007 4.17007C4.37621 3.96392 4.69879 3.94519 4.9261 4.11385L4.99122 4.17007L10 9.17858L15.0088 4.17007C15.2356 3.94331 15.6032 3.94331 15.8299 4.17007C16.0567 4.39682 16.0567 4.76447 15.8299 4.99122L10.8214 10L15.8299 15.0088C16.0361 15.2149 16.0548 15.5375 15.8861 15.7648L15.8299 15.8299C15.6238 16.0361 15.3012 16.0548 15.0739 15.8861L15.0088 15.8299L10 10.8214L4.99122 15.8299C4.76447 16.0567 4.39682 16.0567 4.17007 15.8299C3.94331 15.6032 3.94331 15.2356 4.17007 15.0088L9.17858 10L4.17007 4.99122C3.96392 4.78508 3.94519 4.4625 4.11385 4.23519Z" fill="black"/>
</svg>
