<svg width="45" height="45" viewBox="0 0 45 45" fill="none" xmlns="http://www.w3.org/2000/svg">
<ellipse cx="8.00171" cy="26.0391" rx="8.00171" ry="7.98637" fill="#3A3ADB" fill-opacity="0.5"/>
<ellipse cx="30.145" cy="4.97094" rx="4.98049" ry="4.97094" fill="#72EDF2"/>
<path d="M28.7963 5.43427C29.5173 2.74944 32.2819 1.15567 34.972 1.8747C37.6624 2.59419 39.2591 5.35456 38.5384 8.03974C37.8175 10.725 35.0521 12.3188 32.3617 11.5993C31.9476 11.4885 31.5593 11.3294 31.2015 11.1296C28.4828 11.2314 26.0484 13.0286 25.3236 15.7272C25.2915 15.8467 25.2631 15.9669 25.2386 16.0866C25.5059 17.3861 25.485 18.7659 25.1175 20.1345C24.9396 20.7974 24.6872 21.4207 24.3773 22.0017C24.8186 23.3775 26.3563 24.2663 28.0326 24.0358C28.8253 23.9267 29.5195 23.5829 30.0375 23.1003L31.93 24.5319L25.4525 33.0651L22.8822 31.1218C23.6631 30.2385 24.0692 29.0479 23.8978 27.8063C23.7226 26.5383 22.9818 25.4842 21.9574 24.8483C19.8542 26.4547 17.0549 27.1058 14.2992 26.3688C9.58718 25.1087 6.79065 20.274 8.05309 15.571C9.31567 10.868 14.1594 8.07661 18.8715 9.33662C19.6723 9.55081 20.4174 9.86968 21.097 10.2722C23.1881 11.1724 25.6331 10.8071 27.2259 9.15986C28.1421 8.21218 28.623 6.99819 28.681 5.74677L28.7279 5.71845C28.7476 5.62377 28.7709 5.52887 28.7963 5.43427Z" fill="url(#paint0_linear_1142_17810)"/>
<ellipse cx="8.00171" cy="26.0391" rx="8.00171" ry="7.98637" fill="#3A3ADB" fill-opacity="0.2"/>
<path d="M33.6406 22.0059C39.7846 22.0059 44.7861 26.943 44.9902 33.1113H45V44.0771C44.9998 44.5869 44.5869 44.9999 44.0771 45H33.2539V44.9902C27.1594 44.7839 22.2813 39.7216 22.2812 33.5029C22.2813 27.1533 27.3671 22.0059 33.6406 22.0059Z" fill="url(#paint1_linear_1142_17810)"/>
<defs>
<linearGradient id="paint0_linear_1142_17810" x1="28.703" y1="26.6863" x2="28.703" y2="5.10205" gradientUnits="userSpaceOnUse">
<stop stop-color="#72EDF2"/>
<stop offset="1" stop-color="#3A3ADB"/>
</linearGradient>
<linearGradient id="paint1_linear_1142_17810" x1="44.9813" y1="44.2394" x2="26.2999" y2="24.7595" gradientUnits="userSpaceOnUse">
<stop offset="0.0625" stop-color="#3A3ADB"/>
<stop offset="1" stop-color="#72EDF2"/>
</linearGradient>
</defs>
</svg>
