<svg width="26" height="26" viewBox="0 0 26 26" fill="none" xmlns="http://www.w3.org/2000/svg">
<path d="M16.3914 20.0203C16.4649 20.0938 16.5233 20.1811 16.5631 20.2772C16.6029 20.3733 16.6233 20.4763 16.6233 20.5803C16.6233 20.6843 16.6029 20.7873 16.5631 20.8834C16.5233 20.9795 16.4649 21.0668 16.3914 21.1403C16.3178 21.2139 16.2305 21.2722 16.1344 21.312C16.0383 21.3518 15.9354 21.3723 15.8313 21.3723C15.7273 21.3723 15.6243 21.3518 15.5283 21.312C15.4322 21.2722 15.3449 21.2139 15.2713 21.1403L7.35569 13.2247C7.28209 13.1512 7.22371 13.0639 7.18387 12.9678C7.14404 12.8717 7.12354 12.7687 7.12354 12.6647C7.12354 12.5606 7.14404 12.4576 7.18387 12.3615C7.22371 12.2654 7.28209 12.1781 7.35569 12.1046L15.2713 4.189C15.4198 4.04047 15.6213 3.95703 15.8313 3.95703C16.0414 3.95703 16.2428 4.04047 16.3914 4.189C16.5399 4.33753 16.6233 4.53898 16.6233 4.74903C16.6233 4.95909 16.5399 5.16053 16.3914 5.30906L9.03479 12.6647L16.3914 20.0203Z" fill="#D9DADD"/>
</svg>
