<svg width="74" height="74" viewBox="0 0 74 74" fill="none" xmlns="http://www.w3.org/2000/svg">
<ellipse cx="13.1584" cy="42.8192" rx="13.1584" ry="13.1331" fill="#3A3ADB" fill-opacity="0.5"/>
<ellipse cx="49.572" cy="8.17444" rx="8.19015" ry="8.17444" fill="#72EDF2"/>
<path d="M47.353 8.93617C48.5386 4.52066 53.0861 1.90059 57.5102 3.08363C61.9343 4.26685 64.5598 8.80565 63.3745 13.2213C62.1889 17.6369 57.6414 20.258 53.2173 19.0748C52.5356 18.8925 51.897 18.6294 51.3081 18.3004C46.8376 18.4684 42.8366 21.4254 41.645 25.8629C41.5926 26.058 41.5454 26.2535 41.5053 26.4489C41.9457 28.587 41.9087 30.857 41.3042 33.109C41.0112 34.2004 40.5997 35.2289 40.0893 36.1852C40.8172 38.4449 43.3435 39.9039 46.0981 39.525C47.4019 39.3456 48.5441 38.7817 49.396 37.9879L52.5073 40.3414L41.854 54.3746L37.6284 51.1784C38.9128 49.7257 39.5794 47.7672 39.2973 45.7252C39.0093 43.6409 37.7932 41.9073 36.1098 40.8619C32.6513 43.5043 28.0463 44.573 23.5141 43.361C15.7655 41.2887 11.1675 33.3389 13.2436 25.6051C15.32 17.8715 23.2841 13.282 31.0327 15.3541C32.3619 15.7096 33.599 16.2372 34.7251 16.9078C38.1564 18.3702 42.1611 17.7642 44.7719 15.0641C46.2788 13.5056 47.071 11.508 47.1665 9.44984L47.2426 9.40492C47.2751 9.24882 47.3111 9.09212 47.353 8.93617Z" fill="url(#paint0_linear_707_8990)"/>
<ellipse cx="13.1584" cy="42.8192" rx="13.1584" ry="13.1331" fill="#3A3ADB" fill-opacity="0.2"/>
<path d="M55.3193 36.187C65.4227 36.187 73.6514 44.3055 73.9873 54.4487H74V72.4819C73.9998 73.3203 73.3198 73.9995 72.4814 73.9995H55.3887C55.3656 73.9996 55.3424 74.0005 55.3193 74.0005C55.2962 74.0005 55.2731 73.9996 55.25 73.9995H54.6836V73.9868C44.6615 73.6475 36.6397 65.3196 36.6396 55.0933C36.6398 44.6516 45.0029 36.1871 55.3193 36.187Z" fill="url(#paint1_linear_707_8990)"/>
<defs>
<linearGradient id="paint0_linear_707_8990" x1="47.201" y1="43.8847" x2="47.201" y2="8.39052" gradientUnits="userSpaceOnUse">
<stop stop-color="#72EDF2"/>
<stop offset="1" stop-color="#3A3ADB"/>
</linearGradient>
<linearGradient id="paint1_linear_707_8990" x1="73.969" y1="72.7493" x2="43.248" y2="40.7155" gradientUnits="userSpaceOnUse">
<stop offset="0.0625" stop-color="#3A3ADB"/>
<stop offset="1" stop-color="#72EDF2"/>
</linearGradient>
</defs>
</svg>
