<svg width="28" height="28" viewBox="0 0 28 28" fill="none" xmlns="http://www.w3.org/2000/svg">
<path d="M18.1188 22.1309C18.2001 22.2122 18.2646 22.3087 18.3086 22.415C18.3526 22.5212 18.3752 22.635 18.3752 22.75C18.3752 22.865 18.3526 22.9788 18.3086 23.085C18.2646 23.1913 18.2001 23.2878 18.1188 23.3691C18.0375 23.4504 17.941 23.5148 17.8347 23.5588C17.7285 23.6028 17.6147 23.6255 17.4997 23.6255C17.3847 23.6255 17.2709 23.6028 17.1647 23.5588C17.0585 23.5148 16.9619 23.4504 16.8806 23.3691L8.13065 14.6191C8.04929 14.5378 7.98476 14.4413 7.94072 14.3351C7.89669 14.2288 7.87402 14.115 7.87402 14C7.87402 13.885 7.89669 13.7711 7.94072 13.6649C7.98476 13.5587 8.04929 13.4622 8.13065 13.3809L16.8806 4.63094C17.0448 4.46675 17.2675 4.37451 17.4997 4.37451C17.7319 4.37451 17.9546 4.46675 18.1188 4.63094C18.283 4.79512 18.3752 5.0178 18.3752 5.25C18.3752 5.48219 18.283 5.70488 18.1188 5.86906L9.98674 14L18.1188 22.1309Z" fill="#323339"/>
</svg>
