<svg width="28" height="28" viewBox="0 0 28 28" fill="none" xmlns="http://www.w3.org/2000/svg">
<path d="M22.75 6.125H19.7181L18.2273 3.88938C18.1475 3.76967 18.0393 3.6715 17.9124 3.60358C17.7856 3.53567 17.6439 3.50009 17.5 3.5H10.5C10.3561 3.50009 10.2144 3.53567 10.0876 3.60358C9.96069 3.6715 9.85252 3.76967 9.77266 3.88938L8.28078 6.125H5.25C4.55381 6.125 3.88613 6.40156 3.39384 6.89384C2.90156 7.38613 2.625 8.05381 2.625 8.75V21C2.625 21.6962 2.90156 22.3639 3.39384 22.8562C3.88613 23.3484 4.55381 23.625 5.25 23.625H22.75C23.4462 23.625 24.1139 23.3484 24.6062 22.8562C25.0984 22.3639 25.375 21.6962 25.375 21V8.75C25.375 8.05381 25.0984 7.38613 24.6062 6.89384C24.1139 6.40156 23.4462 6.125 22.75 6.125ZM17.9375 14.4375C17.9375 15.2163 17.7066 15.9775 17.2739 16.6251C16.8413 17.2726 16.2263 17.7773 15.5068 18.0753C14.7873 18.3733 13.9956 18.4513 13.2318 18.2993C12.468 18.1474 11.7664 17.7724 11.2158 17.2217C10.6651 16.6711 10.2901 15.9695 10.1382 15.2057C9.98623 14.4419 10.0642 13.6502 10.3622 12.9307C10.6602 12.2112 11.1649 11.5962 11.8124 11.1636C12.46 10.7309 13.2212 10.5 14 10.5C15.0443 10.5 16.0458 10.9148 16.7842 11.6533C17.5227 12.3917 17.9375 13.3932 17.9375 14.4375Z" fill="white"/>
</svg>
