<svg width="28" height="28" viewBox="0 0 28 28" fill="none" xmlns="http://www.w3.org/2000/svg">
<path d="M14.4697 3.00879C18.2237 3.19888 21.209 6.30329 21.209 10.1045L21.2002 10.4697C21.0268 13.8947 18.4271 16.6778 15.0859 17.1396C15.0976 17.2007 15.1045 17.2637 15.1045 17.3281V22.0068L17.0215 20.0898C17.4119 19.6995 18.045 19.6997 18.4355 20.0898C18.8261 20.4804 18.826 21.1134 18.4355 21.5039L14.1406 25.7988L9.8457 21.5039C9.45518 21.1134 9.45518 20.4804 9.8457 20.0898C10.2363 19.6998 10.8694 19.6995 11.2598 20.0898L13.1045 21.9346V17.3281C13.1045 17.2638 13.1105 17.2006 13.1221 17.1396C9.78141 16.6774 7.18221 13.8944 7.00879 10.4697L7 10.1045C7 6.1808 10.1808 3 14.1045 3L14.4697 3.00879ZM14.1045 5C11.2854 5 9 7.28537 9 10.1045C9.00001 12.9236 11.2854 15.209 14.1045 15.209C16.9236 15.209 19.209 12.9236 19.209 10.1045C19.209 7.28537 16.9236 5.00001 14.1045 5Z" fill="black"/>
</svg>
