<svg width="28" height="28" viewBox="0 0 28 28" fill="none" xmlns="http://www.w3.org/2000/svg">
<path d="M14 6.70833C9.97292 6.70833 6.70833 9.97292 6.70833 14C6.70833 18.027 9.97292 21.2917 14 21.2917C18.027 21.2917 21.2917 18.027 21.2917 14C21.2917 13.6341 21.2647 13.2745 21.2127 12.9231C21.1473 12.4816 21.4705 12.0556 21.9167 12.0556C22.2773 12.0556 22.5935 12.3046 22.6482 12.6611C22.7152 13.0976 22.75 13.5447 22.75 14C22.75 18.8325 18.8325 22.75 14 22.75C9.16751 22.75 5.25 18.8325 5.25 14C5.25 9.16751 9.16751 5.25 14 5.25C16.2411 5.25 18.2853 6.09249 19.8333 7.47802V6.46528C19.8333 6.06257 20.1598 5.73611 20.5625 5.73611C20.9652 5.73611 21.2917 6.06257 21.2917 6.46528V9.38194C21.2917 9.78465 20.9652 10.1111 20.5625 10.1111H17.6458C17.2431 10.1111 16.9167 9.78465 16.9167 9.38194C16.9167 8.97924 17.2431 8.65278 17.6458 8.65278H18.9575C17.6564 7.44608 15.9144 6.70833 14 6.70833Z" fill="#323339"/>
</svg>
