<svg width="26" height="26" viewBox="0 0 26 26" fill="none" xmlns="http://www.w3.org/2000/svg">
<path d="M18.3104 13.5599L10.3937 21.4766C10.3202 21.5501 10.2328 21.6085 10.1367 21.6483C10.0406 21.6881 9.93763 21.7086 9.83361 21.7086C9.72959 21.7086 9.62659 21.6881 9.53048 21.6483C9.43438 21.6085 9.34706 21.5501 9.27351 21.4766C9.19995 21.403 9.14161 21.3157 9.1018 21.2196C9.06199 21.1235 9.0415 21.0205 9.0415 20.9165C9.0415 20.8124 9.06199 20.7094 9.1018 20.6133C9.14161 20.5172 9.19995 20.4299 9.27351 20.3564L16.6311 12.9998L9.27351 5.64323C9.12496 5.49468 9.0415 5.2932 9.0415 5.08312C9.0415 4.87304 9.12496 4.67157 9.27351 4.52302C9.42206 4.37447 9.62353 4.29102 9.83361 4.29102C10.0437 4.29102 10.2452 4.37447 10.3937 4.52302L18.3104 12.4397C18.384 12.5132 18.4424 12.6005 18.4822 12.6966C18.5221 12.7927 18.5426 12.8958 18.5426 12.9998C18.5426 13.1038 18.5221 13.2068 18.4822 13.303C18.4424 13.3991 18.384 13.4864 18.3104 13.5599Z" fill="#D9DADD"/>
</svg>
