<svg width="28" height="28" viewBox="0 0 28 28" fill="none" xmlns="http://www.w3.org/2000/svg">
<path d="M3.5 7H5.83333H24.5" stroke="black" stroke-width="2" stroke-linecap="round" stroke-linejoin="round"/>
<path d="M22.1668 6.9987V23.332C22.1668 23.9509 21.921 24.5444 21.4834 24.9819C21.0458 25.4195 20.4523 25.6654 19.8335 25.6654H8.16683C7.54799 25.6654 6.9545 25.4195 6.51691 24.9819C6.07933 24.5444 5.8335 23.9509 5.8335 23.332V6.9987M9.3335 6.9987V4.66536C9.3335 4.04653 9.57933 3.45303 10.0169 3.01545C10.4545 2.57786 11.048 2.33203 11.6668 2.33203H16.3335C16.9523 2.33203 17.5458 2.57786 17.9834 3.01545C18.421 3.45303 18.6668 4.04653 18.6668 4.66536V6.9987" stroke="black" stroke-width="2" stroke-linecap="round" stroke-linejoin="round"/>
<path d="M11.6665 12.832V19.832" stroke="black" stroke-width="2" stroke-linecap="round" stroke-linejoin="round"/>
<path d="M16.3335 12.832V19.832" stroke="black" stroke-width="2" stroke-linecap="round" stroke-linejoin="round"/>
</svg>
