<svg width="29" height="28" viewBox="0 0 29 28" fill="none" xmlns="http://www.w3.org/2000/svg">
<path d="M25 15.7507V22.7507C25 22.9827 24.9078 23.2053 24.7437 23.3694C24.5796 23.5335 24.3571 23.6257 24.125 23.6257H4.875C4.64294 23.6257 4.42038 23.5335 4.25628 23.3694C4.09219 23.2053 4 22.9827 4 22.7507V15.7507C4 15.5186 4.09219 15.2961 4.25628 15.132C4.42038 14.9679 4.64294 14.8757 4.875 14.8757C5.10706 14.8757 5.32962 14.9679 5.49372 15.132C5.65781 15.2961 5.75 15.5186 5.75 15.7507V21.8757H23.25V15.7507C23.25 15.5186 23.3422 15.2961 23.5063 15.132C23.6704 14.9679 23.8929 14.8757 24.125 14.8757C24.3571 14.8757 24.5796 14.9679 24.7437 15.132C24.9078 15.2961 25 15.5186 25 15.7507ZM10.7441 8.49475L13.625 5.61272V15.7507C13.625 15.9828 13.7172 16.2053 13.8813 16.3694C14.0454 16.5335 14.2679 16.6257 14.5 16.6257C14.7321 16.6257 14.9546 16.5335 15.1187 16.3694C15.2828 16.2053 15.375 15.9828 15.375 15.7507V5.61272L18.2559 8.49475C18.4201 8.65894 18.6428 8.75117 18.875 8.75117C19.1072 8.75117 19.3299 8.65894 19.4941 8.49475C19.6582 8.33057 19.7505 8.10788 19.7505 7.87569C19.7505 7.64349 19.6582 7.42081 19.4941 7.25663L15.1191 2.88163C15.0378 2.80027 14.9413 2.73573 14.8351 2.6917C14.7288 2.64766 14.615 2.625 14.5 2.625C14.385 2.625 14.2712 2.64766 14.1649 2.6917C14.0587 2.73573 13.9622 2.80027 13.8809 2.88163L9.50594 7.25663C9.34175 7.42081 9.24951 7.64349 9.24951 7.87569C9.24951 8.10788 9.34175 8.33057 9.50594 8.49475C9.67012 8.65894 9.89281 8.75117 10.125 8.75117C10.3572 8.75117 10.5799 8.65894 10.7441 8.49475Z" fill="#3A3ADB"/>
</svg>
