<svg width="28" height="28" viewBox="0 0 28 28" fill="none" xmlns="http://www.w3.org/2000/svg">
<path d="M14.4697 3.00879C18.2237 3.19888 21.209 6.30329 21.209 10.1045L21.2002 10.4697C21.0273 13.8834 18.4443 16.6602 15.1191 17.1357V19.2393H19.6865C20.2471 19.2393 20.7012 19.6934 20.7012 20.2539C20.7011 20.8144 20.247 21.2686 19.6865 21.2686H15.1191V24.8213C15.1189 25.3816 14.6649 25.8359 14.1045 25.8359C13.5441 25.8359 13.0901 25.3816 13.0898 24.8213V21.2686H8.52246C7.96199 21.2686 7.50791 20.8144 7.50781 20.2539C7.50781 19.6934 7.96193 19.2393 8.52246 19.2393H13.0898V17.1357C9.76467 16.6601 7.18165 13.8834 7.00879 10.4697L7 10.1045C7 6.1808 10.1808 3 14.1045 3L14.4697 3.00879ZM14.1045 5C11.2854 5 9 7.28537 9 10.1045C9.00001 12.851 11.1692 15.0895 13.8877 15.2031C13.9576 15.1879 14.03 15.1787 14.1045 15.1787C14.1786 15.1787 14.2507 15.188 14.3203 15.2031C17.0393 15.09 19.209 12.8513 19.209 10.1045C19.209 7.28537 16.9236 5.00001 14.1045 5Z" fill="black"/>
</svg>
