<svg width="320" height="320" viewBox="0 0 320 320" fill="none" xmlns="http://www.w3.org/2000/svg">
<circle cx="46" cy="99" r="25" fill="#ECECFC"/>
<circle cx="275" cy="170" r="25" fill="#E3FBFC"/>
<path d="M130.921 72.1386C140.316 55.8664 163.842 55.9761 173.085 72.3359L263.725 232.78C272.868 248.964 261.174 268.999 242.587 269H59.3142C40.6251 269 28.9443 248.768 38.2888 232.583L130.921 72.1386ZM158.488 94.2373C155.609 89.0781 148.199 89.0437 145.272 94.1757L64.8377 235.243C61.9539 240.301 65.6064 246.588 71.4285 246.588H230.567C236.358 246.588 240.014 240.362 237.193 235.305L158.488 94.2373ZM150.32 207.911C155.239 207.911 159.226 212.164 159.226 217.411C159.226 222.658 155.239 226.911 150.32 226.911C145.401 226.911 141.414 222.658 141.414 217.411C141.414 212.164 145.401 207.911 150.32 207.911ZM149.774 144.973C157.954 144.974 161.915 150.67 163.35 155.017C163.962 156.871 163.828 158.856 163.533 160.786L158.159 196.001C157.911 197.628 157.561 199.274 156.616 200.621C155.339 202.443 153.18 204.347 150.138 204.348C146.8 204.348 144.665 202.053 143.573 200.092C142.99 199.046 142.764 197.853 142.584 196.67L136.942 159.701C136.757 158.489 136.617 157.253 136.876 156.055C137.881 151.404 142.427 144.971 149.774 144.973Z" fill="url(#paint0_linear_1192_16988)" fill-opacity="0.8"/>
<path d="M40.5246 87.7958L26.4445 67.5682C25.9828 66.905 25.5409 66.2146 25.3459 65.4304C24.5894 62.3876 25.4083 57.2615 29.7547 55.1272C34.5937 52.751 38.592 54.9686 40.7041 57.1229C41.6049 58.0418 42.102 59.2553 42.4887 60.4825L49.5432 82.8737C49.8692 83.9083 50.1408 84.9834 49.9734 86.0551C49.7472 87.5038 49.0236 89.2584 47.2246 90.1422C45.2499 91.1124 43.3203 90.3746 42.1046 89.5321C41.456 89.0827 40.9754 88.4434 40.5246 87.7958Z" fill="#3A3ADB"/>
<ellipse cx="51.1283" cy="97.8158" rx="5.86957" ry="6.26087" transform="rotate(-26.1644 51.1283 97.8158)" fill="#3A3ADB"/>
<path d="M265.26 150.954L271.189 127.032C271.384 126.247 271.612 125.46 272.073 124.796C273.862 122.222 278.257 119.458 282.727 121.32C287.703 123.392 288.672 127.861 288.444 130.869C288.347 132.152 287.762 133.326 287.094 134.426L274.907 154.491C274.344 155.418 273.714 156.331 272.798 156.911C271.559 157.696 269.763 158.309 267.912 157.539C265.881 156.693 265.164 154.756 264.996 153.286C264.907 152.502 265.071 151.719 265.26 150.954Z" fill="#72EDF2"/>
<ellipse cx="264.715" cy="165.532" rx="5.86957" ry="6.26087" transform="rotate(22.5971 264.715 165.532)" fill="#72EDF2"/>
<defs>
<linearGradient id="paint0_linear_1192_16988" x1="121.862" y1="82.7034" x2="280.597" y2="206.469" gradientUnits="userSpaceOnUse">
<stop stop-color="#3A3ADB"/>
<stop offset="0.725962" stop-color="#63BCEC"/>
<stop offset="1" stop-color="#72EDF2"/>
</linearGradient>
</defs>
</svg>
