<svg width="340" height="340" viewBox="0 0 340 340" fill="none" xmlns="http://www.w3.org/2000/svg">
<path d="M135.455 257.148C88.9888 262.382 47.0763 228.957 41.8413 182.492C36.6066 136.026 70.0318 94.1143 116.498 88.8793C126.346 87.7699 135.989 88.3982 145.123 90.518C157.483 92.823 180.87 101.636 196.338 123.055C212.86 145.934 240.471 145.047 258.046 140.475C261.709 138.82 265.688 137.697 269.897 137.223C291.561 134.783 311.1 150.365 313.541 172.028C315.981 193.691 300.398 213.231 278.735 215.672C270.259 216.627 262.107 214.822 255.178 210.973C247.61 208.291 233.184 204.496 221.351 209.14C208.611 214.14 199.297 219.969 192.884 224.896C179.368 242.322 159.1 254.484 135.455 257.148Z" fill="url(#paint0_linear_1726_19937)" fill-opacity="0.8"/>
<path d="M135.455 257.148L135.623 258.638L135.455 257.148ZM41.8413 182.492L40.3507 182.66L40.3507 182.66L41.8413 182.492ZM116.498 88.8793L116.33 87.3888L116.498 88.8793ZM145.123 90.518L144.784 91.9792L144.816 91.9866L144.848 91.9926L145.123 90.518ZM196.338 123.055L197.554 122.177L196.338 123.055ZM258.046 140.475L258.424 141.927L258.548 141.895L258.664 141.842L258.046 140.475ZM269.897 137.223L269.73 135.732L269.73 135.732L269.897 137.223ZM313.541 172.028L315.032 171.861L315.032 171.861L313.541 172.028ZM278.735 215.672L278.903 217.163L278.903 217.163L278.735 215.672ZM255.178 210.973L255.906 209.662L255.797 209.601L255.679 209.559L255.178 210.973ZM221.351 209.14L220.803 207.744L220.803 207.744L221.351 209.14ZM192.884 224.896L191.97 223.706L191.817 223.824L191.698 223.977L192.884 224.896ZM135.455 257.148L135.287 255.657C89.6441 260.799 48.4741 227.966 43.3319 182.324L41.8413 182.492L40.3507 182.66C45.6785 229.949 88.3335 263.966 135.623 258.638L135.455 257.148ZM41.8413 182.492L43.3319 182.324C38.1899 136.681 71.0229 95.5121 116.666 90.3699L116.498 88.8793L116.33 87.3888C69.0407 92.7164 35.0233 135.37 40.3507 182.66L41.8413 182.492ZM116.498 88.8793L116.666 90.3699C126.342 89.2798 135.814 89.8973 144.784 91.9792L145.123 90.518L145.462 89.0569C136.165 86.899 126.35 86.2599 116.33 87.3888L116.498 88.8793ZM145.123 90.518L144.848 91.9926C156.963 94.2518 179.948 102.921 195.122 123.934L196.338 123.055L197.554 122.177C181.792 100.35 158.003 91.3941 145.398 89.0435L145.123 90.518ZM196.338 123.055L195.122 123.934C212.208 147.593 240.675 146.544 258.424 141.927L258.046 140.475L257.669 139.024C240.268 143.55 213.512 144.274 197.554 122.177L196.338 123.055ZM258.046 140.475L258.664 141.842C262.187 140.25 266.014 139.17 270.065 138.713L269.897 137.223L269.73 135.732C265.362 136.224 261.231 137.39 257.429 139.109L258.046 140.475ZM269.897 137.223L270.065 138.713C290.905 136.366 309.703 151.356 312.05 172.196L313.541 172.028L315.032 171.861C312.498 149.374 292.216 133.199 269.73 135.732L269.897 137.223ZM313.541 172.028L312.05 172.196C314.398 193.036 299.407 211.833 278.568 214.181L278.735 215.672L278.903 217.163C301.39 214.629 317.565 194.347 315.032 171.861L313.541 172.028ZM278.735 215.672L278.568 214.181C270.411 215.1 262.571 213.364 255.906 209.662L255.178 210.973L254.449 212.284C261.642 216.28 270.106 218.154 278.903 217.163L278.735 215.672ZM255.178 210.973L255.679 209.559C251.831 208.195 246.218 206.54 240.038 205.819C233.868 205.1 227.031 205.299 220.803 207.744L221.351 209.14L221.899 210.536C227.503 208.337 233.796 208.112 239.69 208.799C245.573 209.485 250.957 211.068 254.676 212.387L255.178 210.973ZM221.351 209.14L220.803 207.744C207.923 212.798 198.488 218.699 191.97 223.706L192.884 224.896L193.797 226.085C200.107 221.239 209.298 215.482 221.899 210.536L221.351 209.14ZM192.884 224.896L191.698 223.977C178.421 241.096 158.513 253.041 135.287 255.657L135.455 257.148L135.623 258.638C159.686 255.927 180.316 243.548 194.069 225.815L192.884 224.896Z" fill="url(#paint1_linear_1726_19937)"/>
<circle cx="290.863" cy="94.5" r="11.5" fill="url(#paint2_linear_1726_19937)"/>
<circle cx="314.363" cy="83" r="6" fill="#3A3ADB"/>
<path d="M206.364 132.642C266.978 116.918 313.819 114.952 318.896 129.784C325.265 148.389 263.502 186.382 180.944 214.643C98.3861 242.904 26.2967 250.731 19.9278 232.126C17.2174 224.208 26.8455 212.78 45.1639 200.085" stroke="url(#paint3_linear_1726_19937)" stroke-width="2"/>
<path d="M61.8567 228.738C51.8675 246.369 48.671 259.873 54.3794 265.992C67.7935 280.372 125.3 248.53 182.824 194.869C240.349 141.209 276.107 86.0519 262.693 71.6719C252.81 61.0769 218.99 75.5742 178.864 105.402" stroke="url(#paint4_linear_1726_19937)" stroke-width="2"/>
<defs>
<linearGradient id="paint0_linear_1726_19937" x1="217.789" y1="229.361" x2="70.3343" y2="96.8453" gradientUnits="userSpaceOnUse">
<stop stop-color="#3A3ADB"/>
<stop offset="0.725962" stop-color="#63BCEC"/>
<stop offset="1" stop-color="#72EDF2"/>
</linearGradient>
<linearGradient id="paint1_linear_1726_19937" x1="229.696" y1="232.688" x2="70.8867" y2="95.5019" gradientUnits="userSpaceOnUse">
<stop stop-color="#2222DC"/>
<stop offset="1" stop-color="#A2FBFF"/>
</linearGradient>
<linearGradient id="paint2_linear_1726_19937" x1="280.779" y1="87.7353" x2="295.407" y2="94.5525" gradientUnits="userSpaceOnUse">
<stop stop-color="#72EDF2"/>
<stop offset="0.254808" stop-color="#63BCEC"/>
<stop offset="1" stop-color="#3A3ADB"/>
</linearGradient>
<linearGradient id="paint3_linear_1726_19937" x1="32.0221" y1="207.413" x2="104.573" y2="282.243" gradientUnits="userSpaceOnUse">
<stop stop-color="#72EDF2"/>
<stop offset="0.254808" stop-color="#63BCEC"/>
<stop offset="1" stop-color="#3A3ADB"/>
</linearGradient>
<linearGradient id="paint4_linear_1726_19937" x1="115.274" y1="174.84" x2="204.299" y2="222.568" gradientUnits="userSpaceOnUse">
<stop stop-color="#3A3ADB"/>
<stop offset="0.725962" stop-color="#63BCEC"/>
<stop offset="1" stop-color="#72EDF2"/>
</linearGradient>
</defs>
</svg>
