<svg width="24" height="24" viewBox="0 0 24 24" fill="none" xmlns="http://www.w3.org/2000/svg">
<path d="M11.7959 9.65137V14.2196H18.1443C17.8655 15.6888 17.029 16.9328 15.7743 17.7692L19.6026 20.7397C21.8332 18.6808 23.12 15.6567 23.12 12.0643C23.12 11.2279 23.0449 10.4235 22.9055 9.6515L11.7959 9.65137Z" fill="#4285F4"/>
<path d="M5.1851 14.04L4.32167 14.701L1.26538 17.0816C3.20635 20.9313 7.18453 23.5909 11.7957 23.5909C14.9805 23.5909 17.6506 22.5399 19.6024 20.7384L15.7741 17.7679C14.7232 18.4757 13.3827 18.9047 11.7957 18.9047C8.72871 18.9047 6.12295 16.835 5.18992 14.0468L5.1851 14.04Z" fill="#34A853"/>
<path d="M1.2653 6.50879C0.461068 8.09582 0 9.88669 0 11.7955C0 13.7042 0.461068 15.4951 1.2653 17.0822C1.2653 17.0928 5.19022 14.0366 5.19022 14.0366C4.9543 13.3289 4.81485 12.5783 4.81485 11.7953C4.81485 11.0124 4.9543 10.2618 5.19022 9.55406L1.2653 6.50879Z" fill="#FBBC05"/>
<path d="M11.7959 4.69695C13.5332 4.69695 15.0773 5.29746 16.3105 6.45563L19.6885 3.07772C17.6402 1.16895 14.9809 0 11.7959 0C7.18477 0 3.20635 2.64873 1.26538 6.50926L5.19018 9.55477C6.12308 6.7666 8.72896 4.69695 11.7959 4.69695Z" fill="#EA4335"/>
</svg>
