<svg width="20" height="20" viewBox="0 0 20 20" fill="none" xmlns="http://www.w3.org/2000/svg">
<path d="M10 2C14.4182 2 18 5.58172 18 10C18 14.4182 14.4182 18 10 18C5.58172 18 2 14.4182 2 10C2 5.58172 5.58172 2 10 2ZM12.5758 7.57574L9 11.1514L7.42426 9.57576C7.18995 9.34144 6.81005 9.34144 6.57574 9.57576C6.34142 9.81008 6.34142 10.1899 6.57574 10.4242L8.57576 12.4242C8.81008 12.6586 9.18992 12.6586 9.42424 12.4242L13.4242 8.42424C13.6586 8.18995 13.6586 7.81005 13.4242 7.57574C13.1899 7.34142 12.8101 7.34142 12.5758 7.57574Z" fill="#13CE66"/>
</svg>
