<svg width="20" height="20" viewBox="0 0 20 20" fill="none" xmlns="http://www.w3.org/2000/svg">
<path d="M10 2C14.4184 2 18 5.5824 18 10C18 14.4176 14.4184 18 10 18C5.5816 18 2 14.4176 2 10C2 5.5824 5.5816 2 10 2ZM10.0014 12.403C9.56024 12.403 9.20248 12.7606 9.20248 13.2019C9.20248 13.6431 9.56024 14.0008 10.0014 14.0008C10.4426 14.0008 10.8004 13.6431 10.8004 13.2019C10.8004 12.7606 10.4426 12.403 10.0014 12.403ZM9.99968 6C9.58944 6.00014 9.25144 6.3091 9.20536 6.70699L9.2 6.80029L9.20144 10.801L9.20688 10.8943C9.2532 11.2922 9.59144 11.6009 10.0018 11.6007C10.412 11.6006 10.75 11.2916 10.7961 10.8937L10.8014 10.8004L10.8 6.79971L10.7946 6.70642C10.7482 6.30856 10.41 5.99986 9.99968 6Z" fill="#FF4949"/>
</svg>
