<svg width="170" height="170" viewBox="0 0 170 170" fill="none" xmlns="http://www.w3.org/2000/svg">
<circle cx="85" cy="85" r="85" fill="#ECECFC"/>
<ellipse cx="61.1584" cy="90.8197" rx="13.1584" ry="13.1331" fill="#3A3ADB" fill-opacity="0.5"/>
<ellipse cx="97.572" cy="56.1744" rx="8.19015" ry="8.17444" fill="#72EDF2"/>
<path d="M95.3525 56.9365C96.5381 52.5209 101.087 49.9008 105.511 51.084C109.935 52.2673 112.56 56.8061 111.375 61.2217C110.189 65.6371 105.642 68.2581 101.218 67.0752C100.536 66.8929 99.8966 66.6298 99.3076 66.3008C94.8372 66.4689 90.8361 69.4257 89.6445 73.8633C89.5922 74.0583 89.5459 74.2539 89.5059 74.4492C89.9462 76.5873 89.9082 78.8574 89.3037 81.1094C89.0106 82.2012 88.5995 83.2299 88.0889 84.1865C88.8171 86.4458 91.3443 87.9043 94.0986 87.5254C95.4022 87.3459 96.5437 86.7819 97.3955 85.9883L100.508 88.3418L89.8545 102.374L85.6279 99.1787C86.9124 97.7261 87.5798 95.7676 87.2979 93.7256C87.0098 91.6415 85.7935 89.9077 84.1104 88.8623C80.6517 91.5049 76.0461 92.5734 71.5137 91.3613C63.7651 89.2889 59.1669 81.3383 61.2432 73.6045C63.3198 65.871 71.2847 61.2813 79.0332 63.3535C80.3623 63.709 81.5987 64.2377 82.7246 64.9082C86.156 66.3706 90.1616 65.7646 92.7725 63.0645C94.2792 61.506 95.0706 59.5083 95.166 57.4502L95.2432 57.4053C95.2756 57.2492 95.3107 57.0924 95.3525 56.9365Z" fill="url(#paint0_linear_3300_29333)"/>
<ellipse cx="61.1584" cy="90.8197" rx="13.1584" ry="13.1331" fill="#3A3ADB" fill-opacity="0.2"/>
<path d="M103.32 84.1875C113.423 84.1875 121.652 92.306 121.988 102.449H122V120.482C122 121.321 121.32 122 120.482 122H103.389C103.366 122 103.343 122.001 103.32 122.001C103.297 122.001 103.274 122 103.25 122H102.684V121.987C92.662 121.648 84.6402 113.32 84.6401 103.094C84.6403 92.6521 93.0034 84.1875 103.32 84.1875Z" fill="url(#paint1_linear_3300_29333)"/>
<defs>
<linearGradient id="paint0_linear_3300_29333" x1="95.201" y1="91.8849" x2="95.201" y2="56.3908" gradientUnits="userSpaceOnUse">
<stop stop-color="#72EDF2"/>
<stop offset="1" stop-color="#3A3ADB"/>
</linearGradient>
<linearGradient id="paint1_linear_3300_29333" x1="121.969" y1="120.75" x2="91.2484" y2="88.7159" gradientUnits="userSpaceOnUse">
<stop offset="0.0625" stop-color="#3A3ADB"/>
<stop offset="1" stop-color="#72EDF2"/>
</linearGradient>
</defs>
</svg>
