<svg width="45" height="45" viewBox="0 0 45 45" fill="none" xmlns="http://www.w3.org/2000/svg">
<ellipse cx="8.00171" cy="26.0386" rx="8.00171" ry="7.98637" fill="#3A3ADB" fill-opacity="0.5"/>
<ellipse cx="30.1451" cy="4.97094" rx="4.98049" ry="4.97094" fill="#72EDF2"/>
<path d="M28.7957 5.43392C29.5167 2.749 32.2822 1.15611 34.9724 1.87533C37.6625 2.59492 39.2593 5.35438 38.5388 8.03939C37.818 10.7245 35.0524 12.3182 32.3621 11.599C31.948 11.4882 31.5597 11.3289 31.2019 11.1292C28.483 11.231 26.0487 13.029 25.324 15.7279C25.2919 15.8474 25.2635 15.9676 25.239 16.0872C25.5061 17.3865 25.4852 18.7658 25.1179 20.1341C24.9399 20.7974 24.6868 21.4211 24.3767 22.0023C24.8182 23.3779 26.3568 24.2661 28.033 24.0355C28.8257 23.9264 29.5189 23.5825 30.0369 23.0999L31.9304 24.5326L25.4519 33.0658L22.8816 31.1214C23.6625 30.2382 24.0696 29.0475 23.8982 27.806C23.723 26.5379 22.9823 25.4828 21.9578 24.847C19.8546 26.4538 17.0555 27.1054 14.2996 26.3685C9.58753 25.1083 6.79098 20.2737 8.05348 15.5706C9.31615 10.8677 14.1598 8.0761 18.8718 9.33627C19.6726 9.55046 20.4168 9.87034 21.0964 10.2728C23.1875 11.1731 25.6325 10.8068 27.2254 9.15951C28.1416 8.21176 28.6234 6.998 28.6814 5.74642L28.7283 5.7181C28.748 5.62349 28.7703 5.52844 28.7957 5.43392Z" fill="url(#paint0_linear_569_1241)"/>
<ellipse cx="8.00171" cy="26.0386" rx="8.00171" ry="7.98637" fill="#3A3ADB" fill-opacity="0.2"/>
<path d="M33.6406 22.0056C39.7845 22.0057 44.7861 26.9428 44.9902 33.1111H44.9999V44.0769C44.9998 44.5866 44.5868 44.9996 44.0771 44.9998H33.2538V44.99C27.1593 44.7836 22.2812 39.7214 22.2812 33.5027C22.2813 27.153 27.367 22.0056 33.6406 22.0056Z" fill="url(#paint1_linear_569_1241)"/>
<defs>
<linearGradient id="paint0_linear_569_1241" x1="28.7034" y1="26.6868" x2="28.7034" y2="5.10253" gradientUnits="userSpaceOnUse">
<stop stop-color="#72EDF2"/>
<stop offset="1" stop-color="#3A3ADB"/>
</linearGradient>
<linearGradient id="paint1_linear_569_1241" x1="44.9813" y1="44.2391" x2="26.2999" y2="24.7592" gradientUnits="userSpaceOnUse">
<stop offset="0.0625" stop-color="#3A3ADB"/>
<stop offset="1" stop-color="#72EDF2"/>
</linearGradient>
</defs>
</svg>
