<svg width="214" height="36" viewBox="0 0 214 36" fill="none" xmlns="http://www.w3.org/2000/svg">
<ellipse cx="6.40135" cy="20.8314" rx="6.40135" ry="6.38923" fill="#3A3ADB" fill-opacity="0.5"/>
<ellipse cx="24.1162" cy="3.97684" rx="3.98438" ry="3.97684" fill="#72EDF2"/>
<path d="M23.0363 4.34768C23.6131 2.19964 25.8256 0.924711 27.9777 1.50002C30.1299 2.0756 31.4076 4.28355 30.8313 6.43166C30.2546 8.57986 28.0421 9.85481 25.8898 9.27932C25.5583 9.19064 25.2475 9.06231 24.9611 8.90236C22.7862 8.98398 20.8398 10.4233 20.26 12.5821C20.2343 12.6776 20.2102 12.7735 20.1906 12.8692C20.4045 13.9089 20.3879 15.0124 20.094 16.1074C19.952 16.6364 19.7511 17.134 19.5041 17.5977C19.856 18.7001 21.0847 19.4141 22.427 19.2295C23.0606 19.1422 23.6153 18.8671 24.0295 18.4815L25.5441 19.626L20.3615 26.4531L18.3049 24.8975C18.9298 24.1908 19.2555 23.2386 19.1184 22.2451C18.9781 21.2307 18.3862 20.3866 17.5666 19.878C15.8841 21.1634 13.6446 21.6844 11.4397 21.0947C7.67019 20.0866 5.43281 16.2194 6.44258 12.4571C7.45268 8.69471 11.3274 6.46183 15.0969 7.46975C15.7292 7.63885 16.3177 7.89007 16.8557 8.20608C18.5335 8.93884 20.5014 8.65192 21.7815 7.32815C22.5142 6.57004 22.9 5.59874 22.9465 4.59768L22.9836 4.57522C22.9993 4.49961 23.0161 4.42321 23.0363 4.34768Z" fill="url(#paint0_linear_1051_774)"/>
<ellipse cx="6.40135" cy="20.8314" rx="6.40135" ry="6.38923" fill="#3A3ADB" fill-opacity="0.5"/>
<path d="M26.9121 17.6049C31.8273 17.6049 35.829 21.5549 35.9922 26.4897H36V35.2631C36 35.6703 35.6698 36.0004 35.2627 36.0004H26.6035V35.9926C21.7279 35.8276 17.8253 31.7782 17.8252 26.8032C17.8252 21.7234 21.8935 17.6052 26.9121 17.6049Z" fill="url(#paint1_linear_1051_774)"/>
<path d="M189.514 36.0002C173.175 36.0002 165.028 28.5335 165.028 18.0447C165.028 5.6891 175.624 0.000213623 189.514 0.000213623C204.25 0.000213623 212.442 5.51132 214 14.978L195.079 18.0447C195.079 15.3335 192.542 14.2224 189.514 14.2224C186.309 14.2224 183.949 15.4669 183.949 17.9558C183.949 20.5335 186.309 21.778 189.514 21.778C192.631 21.778 195.079 20.4891 195.079 18.0447L214 19.9558C212.709 28.7113 205.363 36.0002 189.514 36.0002Z" fill="#3A3ADB"/>
<path d="M144.158 12.5335H144.114V14.9779C144.114 15.0668 144.114 15.0668 144.158 15.0668H162.857V21.3335H144.158C144.114 21.3335 144.114 21.3335 144.114 21.4224V23.9112H144.158H163.791V34.6668H126.083V8.31124C126.083 6.00013 126.083 3.64458 126.083 1.33347H163.524V12.5335H144.158Z" fill="#3A3ADB"/>
<path d="M97.8655 18.0001V18.3112C97.8655 23.7779 97.8655 29.2001 97.8655 34.6668H79.3896V8.62235C79.3896 6.17791 79.3896 3.77791 79.3896 1.33347H97.8655V17.689C97.8655 17.7779 97.8655 17.9112 97.8655 18.0001ZM97.8655 18.0001C100.18 12.4446 102.451 6.88902 104.766 1.33347H124.8C122.218 6.53347 117.009 16.889 117.009 16.889C117.009 16.9335 122.485 28.7557 125.245 34.6668H104.321L97.8655 18.0001Z" fill="#3A3ADB"/>
<path d="M58.0751 12.5335H58.0306V14.9779C58.0306 15.0668 58.0306 15.0668 58.0751 15.0668H76.7735V21.3335H58.0751C58.0306 21.3335 58.0306 21.3335 58.0306 21.4224V23.9112H58.0751H77.7085V34.6668H40V8.31124C40 6.00013 40 3.64458 40 1.33347H77.4413V12.5335H58.0751Z" fill="#3A3ADB"/>
<defs>
<linearGradient id="paint0_linear_1051_774" x1="22.9628" y1="21.3498" x2="22.9628" y2="4.08193" gradientUnits="userSpaceOnUse">
<stop stop-color="#72EDF2"/>
<stop offset="1" stop-color="#3A3ADB"/>
</linearGradient>
<linearGradient id="paint1_linear_1051_774" x1="35.9849" y1="35.3918" x2="21.0397" y2="19.8081" gradientUnits="userSpaceOnUse">
<stop offset="0.0625" stop-color="#3A3ADB"/>
<stop offset="1" stop-color="#72EDF2"/>
</linearGradient>
</defs>
</svg>
