<svg width="36" height="36" viewBox="0 0 36 36" fill="none" xmlns="http://www.w3.org/2000/svg">
<mask id="path-1-inside-1_1635_51816" fill="white">
<path d="M23.093 24.9556C23.093 27.7422 20.8337 30.0014 18.0471 30.0015C15.2604 30.0015 13.0012 27.7423 13.0012 24.9556C13.0012 24.8826 13.004 24.81 13.0071 24.7378H23.0872C23.0902 24.81 23.093 24.8826 23.093 24.9556Z"/>
</mask>
<path d="M23.093 24.9556H25.093V24.9554L23.093 24.9556ZM18.0471 30.0015V32.0015H18.0472L18.0471 30.0015ZM13.0012 24.9556L11.0012 24.9554V24.9556H13.0012ZM13.0071 24.7378V22.7378H11.0903L11.0089 24.6528L13.0071 24.7378ZM23.0872 24.7378L25.0854 24.6528L25.0039 22.7378H23.0872V24.7378ZM23.093 24.9556H21.093C21.093 26.6376 19.7292 28.0014 18.0471 28.0015L18.0471 30.0015L18.0472 32.0015C21.9383 32.0013 25.093 28.8468 25.093 24.9556H23.093ZM18.0471 30.0015V28.0015C16.365 28.0015 15.0012 26.6377 15.0012 24.9556H13.0012H11.0012C11.0012 28.8468 14.1559 32.0015 18.0471 32.0015V30.0015ZM13.0012 24.9556L15.0012 24.9557C15.0012 24.9291 15.0023 24.8938 15.0053 24.8228L13.0071 24.7378L11.0089 24.6528C11.0058 24.7262 11.0012 24.8361 11.0012 24.9554L13.0012 24.9556ZM13.0071 24.7378V26.7378H23.0872V24.7378V22.7378H13.0071V24.7378ZM23.0872 24.7378L21.089 24.8228C21.092 24.8938 21.093 24.9291 21.093 24.9557L23.093 24.9556L25.093 24.9554C25.093 24.8361 25.0885 24.7262 25.0854 24.6528L23.0872 24.7378Z" fill="#3A3ADB" mask="url(#path-1-inside-1_1635_51816)"/>
<path d="M17.7768 4.37204C19.9906 4.32712 22.2591 4.97897 24.019 6.41013C25.799 7.85792 26.9982 10.0564 27.1157 12.9551C27.1707 14.3144 27.1297 19.4319 27.1186 20.7197L29.0424 23.6084C29.8605 24.8371 28.9795 26.4821 27.5033 26.4824H8.41057C6.93411 26.4824 6.05311 24.8372 6.87151 23.6084L7.39007 22.8291C7.44258 22.75 7.5666 22.4984 7.73772 22.0654C7.89775 21.6604 8.07274 21.1661 8.23479 20.6631C8.39694 20.1596 8.54309 19.6583 8.6469 19.2392C8.69884 19.0295 8.73813 18.8474 8.76409 18.7011C8.77698 18.6285 8.78613 18.5688 8.79143 18.5224C8.79399 18.5 8.79542 18.482 8.79632 18.4687C8.79675 18.4623 8.79716 18.4566 8.79729 18.4531V12.9951C8.79738 10.2398 9.92119 8.07813 11.6362 6.61032C13.3314 5.15972 15.5639 4.41705 17.7768 4.37204ZM17.8178 6.35251C15.9998 6.38943 14.2267 7.00168 12.9252 8.11521C11.6437 9.21187 10.7788 10.8265 10.7787 12.9951V18.4472C10.7787 18.7958 10.6784 19.2759 10.5698 19.7148C10.4523 20.1892 10.2927 20.7361 10.1205 21.2705C9.94838 21.8049 9.75939 22.3402 9.5805 22.7929C9.41294 23.2169 9.22251 23.6528 9.03948 23.9277L8.65667 24.5009H27.2563L25.4477 21.7861C25.2435 21.4795 25.1349 21.1185 25.1381 20.7461L25.1606 16.914C25.1655 15.3066 25.1627 13.691 25.1362 13.0351C25.0408 10.6826 24.0916 9.02302 22.769 7.94724C21.4258 6.85497 19.635 6.31574 17.8178 6.35251Z" fill="#3A3ADB"/>
</svg>
