<svg width="36" height="36" viewBox="0 0 36 36" fill="none" xmlns="http://www.w3.org/2000/svg">
<mask id="path-1-inside-1_1635_51765" fill="white">
<path d="M23.093 24.9556C23.093 27.7422 20.8337 30.0014 18.0471 30.0015C15.2604 30.0015 13.0012 27.7423 13.0012 24.9556C13.0012 24.8826 13.004 24.81 13.0071 24.7378H23.0872C23.0902 24.81 23.093 24.8826 23.093 24.9556Z"/>
</mask>
<path d="M23.093 24.9556H25.093V24.9554L23.093 24.9556ZM18.0471 30.0015V32.0015H18.0472L18.0471 30.0015ZM13.0012 24.9556L11.0012 24.9554V24.9556H13.0012ZM13.0071 24.7378V22.7378H11.0903L11.0089 24.6528L13.0071 24.7378ZM23.0872 24.7378L25.0854 24.6528L25.0039 22.7378H23.0872V24.7378ZM23.093 24.9556H21.093C21.093 26.6376 19.7292 28.0014 18.0471 28.0015L18.0471 30.0015L18.0472 32.0015C21.9383 32.0013 25.093 28.8468 25.093 24.9556H23.093ZM18.0471 30.0015V28.0015C16.365 28.0015 15.0012 26.6377 15.0012 24.9556H13.0012H11.0012C11.0012 28.8468 14.1559 32.0015 18.0471 32.0015V30.0015ZM13.0012 24.9556L15.0012 24.9557C15.0012 24.9291 15.0023 24.8938 15.0053 24.8228L13.0071 24.7378L11.0089 24.6528C11.0058 24.7262 11.0012 24.8361 11.0012 24.9554L13.0012 24.9556ZM13.0071 24.7378V26.7378H23.0872V24.7378V22.7378H13.0071V24.7378ZM23.0872 24.7378L21.089 24.8228C21.092 24.8938 21.093 24.9291 21.093 24.9557L23.093 24.9556L25.093 24.9554C25.093 24.8361 25.0885 24.7262 25.0854 24.6528L23.0872 24.7378Z" fill="#5E6068" mask="url(#path-1-inside-1_1635_51765)"/>
<path d="M17.7766 4.37253C19.9905 4.32758 22.2588 4.97939 24.0188 6.41062C25.7988 7.85846 26.998 10.0568 27.1154 12.9555C27.1704 14.3155 27.1295 19.433 27.1184 20.7202L29.0422 23.6089C29.8601 24.8376 28.9793 26.4827 27.5031 26.4829H8.41037C6.93404 26.4828 6.0532 24.8377 6.8713 23.6089L7.38986 22.8296C7.44225 22.7509 7.56625 22.4992 7.73751 22.0659C7.89754 21.6609 8.07252 21.1667 8.23458 20.6635C8.39674 20.1601 8.54286 19.6589 8.64669 19.2397C8.69864 19.03 8.73791 18.8479 8.76388 18.7016C8.77677 18.629 8.78591 18.5693 8.79122 18.5229C8.79378 18.5005 8.7952 18.4825 8.79611 18.4692C8.79653 18.4629 8.79694 18.4572 8.79708 18.4536V12.9956C8.79708 10.2402 9.92102 8.07867 11.636 6.61082C13.3312 5.16009 15.5636 4.41755 17.7766 4.37253ZM17.8176 6.353C15.9995 6.38993 14.2265 7.00206 12.925 8.1157C11.6435 9.21241 10.7785 10.8269 10.7785 12.9956V18.4477C10.7785 18.7964 10.6782 19.2764 10.5695 19.7153C10.452 20.1897 10.2924 20.7366 10.1203 21.271C9.94816 21.8054 9.75919 22.3407 9.58029 22.7934C9.4127 23.2175 9.22232 23.6533 9.03927 23.9282L8.65646 24.5014H27.2561L25.4475 21.7866C25.2433 21.48 25.1348 21.1189 25.1379 20.7466L25.1604 16.9145C25.1652 15.3073 25.1625 13.6918 25.136 13.0356C25.0407 10.683 24.0914 9.02356 22.7688 7.94773C21.4255 6.85539 19.6349 6.3162 17.8176 6.353Z" fill="#5E6068"/>
</svg>
