<svg width="36" height="36" viewBox="0 0 36 36" fill="none" xmlns="http://www.w3.org/2000/svg">
<path d="M31.1273 14.6405C30.8331 14.6897 30.5704 14.8538 30.3972 15.0967C30.2239 15.3396 30.1542 15.6414 30.2034 15.9356C30.3177 16.6178 30.3751 17.3083 30.375 18C30.3777 21.0294 29.2643 23.9535 27.2475 26.2139C25.9928 24.3957 24.2285 22.9891 22.1766 22.171C23.2788 21.3028 24.0831 20.1127 24.4777 18.7663C24.8722 17.4198 24.8373 15.9839 24.3779 14.6581C23.9185 13.3324 23.0574 12.1828 21.9144 11.3691C20.7713 10.5555 19.4031 10.1182 18 10.1182C16.5969 10.1182 15.2287 10.5555 14.0857 11.3691C12.9426 12.1828 12.0815 13.3324 11.6221 14.6581C11.1627 15.9839 11.1278 17.4198 11.5224 18.7663C11.9169 20.1127 12.7212 21.3028 13.8234 22.171C11.7715 22.9891 10.0072 24.3957 8.75251 26.2139C7.17008 24.4307 6.13642 22.2284 5.77582 19.8718C5.41522 17.5152 5.74302 15.1045 6.71982 12.9297C7.69662 10.755 9.28083 8.90863 11.282 7.61276C13.2831 6.31689 15.6159 5.62664 18 5.62502C18.6917 5.62491 19.3822 5.68229 20.0644 5.79658C20.3573 5.8428 20.6567 5.77148 20.8973 5.59814C21.1379 5.4248 21.3004 5.16346 21.3493 4.87096C21.3982 4.57846 21.3297 4.27847 21.1586 4.03625C20.9875 3.79403 20.7277 3.62916 20.4356 3.57752C17.3805 3.06355 14.241 3.53383 11.4706 4.92045C8.70009 6.30707 6.44199 8.53827 5.02227 11.2919C3.60254 14.0456 3.09468 17.1792 3.57199 20.2403C4.0493 23.3014 5.48709 26.1316 7.67778 28.3222C9.86846 30.5129 12.6987 31.9507 15.7598 32.428C18.8209 32.9053 21.9545 32.3975 24.7081 30.9778C27.4618 29.558 29.693 27.2999 31.0796 24.5295C32.4662 21.759 32.9365 18.6196 32.4225 15.5644C32.3733 15.2701 32.2092 15.0075 31.9663 14.8342C31.7234 14.661 31.4216 14.5913 31.1273 14.6405ZM13.5 16.875C13.5 15.985 13.7639 15.115 14.2584 14.375C14.7529 13.6349 15.4557 13.0582 16.2779 12.7176C17.1002 12.377 18.005 12.2878 18.8779 12.4615C19.7508 12.6351 20.5527 13.0637 21.182 13.693C21.8113 14.3224 22.2399 15.1242 22.4135 15.9971C22.5872 16.87 22.4981 17.7748 22.1575 18.5971C21.8169 19.4194 21.2401 20.1222 20.5001 20.6166C19.7601 21.1111 18.89 21.375 18 21.375C16.8065 21.375 15.6619 20.9009 14.818 20.057C13.9741 19.2131 13.5 18.0685 13.5 16.875ZM10.4175 27.7735C11.2314 26.5006 12.3525 25.4532 13.6776 24.7276C15.0028 24.002 16.4892 23.6217 18 23.6217C19.5108 23.6217 20.9972 24.002 22.3224 24.7276C23.6475 25.4532 24.7687 26.5006 25.5825 27.7735C23.4145 29.4595 20.7464 30.3749 18 30.3749C15.2536 30.3749 12.5855 29.4595 10.4175 27.7735ZM33.4209 6.42095L28.9209 10.921C28.8165 11.0256 28.6924 11.1085 28.5558 11.1651C28.4192 11.2218 28.2728 11.2509 28.125 11.2509C27.9772 11.2509 27.8308 11.2218 27.6942 11.1651C27.5576 11.1085 27.4335 11.0256 27.3291 10.921L25.0791 8.67095C24.9745 8.56643 24.8916 8.44234 24.8351 8.30577C24.7785 8.16921 24.7494 8.02284 24.7494 7.87502C24.7494 7.7272 24.7785 7.58082 24.8351 7.44426C24.8916 7.30769 24.9745 7.1836 25.0791 7.07908C25.2902 6.86798 25.5765 6.74939 25.875 6.74939C26.0228 6.74939 26.1692 6.77851 26.3058 6.83507C26.4423 6.89164 26.5664 6.97455 26.6709 7.07908L28.125 8.53455L31.8291 4.82908C31.9336 4.72455 32.0577 4.64164 32.1942 4.58507C32.3308 4.52851 32.4772 4.49939 32.625 4.49939C32.7728 4.49939 32.9192 4.52851 33.0558 4.58507C33.1923 4.64164 33.3164 4.72455 33.4209 4.82908C33.5255 4.9336 33.6084 5.05769 33.6649 5.19426C33.7215 5.33082 33.7506 5.4772 33.7506 5.62502C33.7506 5.77284 33.7215 5.91921 33.6649 6.05577C33.6084 6.19234 33.5255 6.31643 33.4209 6.42095Z" fill="#5E6068"/>
</svg>
