<svg width="36" height="36" viewBox="0 0 36 36" fill="none" xmlns="http://www.w3.org/2000/svg">
<path d="M23.625 7.87502C23.625 7.57665 23.7435 7.2905 23.9545 7.07952C24.1655 6.86854 24.4516 6.75002 24.75 6.75002H27V4.50002C27 4.20165 27.1185 3.9155 27.3295 3.70452C27.5405 3.49354 27.8266 3.37502 28.125 3.37502C28.4233 3.37502 28.7095 3.49354 28.9205 3.70452C29.1315 3.9155 29.25 4.20165 29.25 4.50002V6.75002H31.5C31.7983 6.75002 32.0845 6.86854 32.2955 7.07952C32.5065 7.2905 32.625 7.57665 32.625 7.87502C32.625 8.17338 32.5065 8.45953 32.2955 8.67051C32.0845 8.88149 31.7983 9.00002 31.5 9.00002H29.25V11.25C29.25 11.5484 29.1315 11.8345 28.9205 12.0455C28.7095 12.2565 28.4233 12.375 28.125 12.375C27.8266 12.375 27.5405 12.2565 27.3295 12.0455C27.1185 11.8345 27 11.5484 27 11.25V9.00002H24.75C24.4516 9.00002 24.1655 8.88149 23.9545 8.67051C23.7435 8.45953 23.625 8.17338 23.625 7.87502ZM32.4225 15.5644C32.9364 18.6196 32.4662 21.759 31.0795 24.5295C29.6929 27.2999 27.4617 29.558 24.7081 30.9778C21.9544 32.3975 18.8208 32.9053 15.7597 32.428C12.6986 31.9507 9.86843 30.5129 7.67774 28.3222C5.48706 26.1316 4.04927 23.3014 3.57196 20.2403C3.09465 17.1792 3.60251 14.0456 5.02223 11.2919C6.44196 8.53827 8.70006 6.30707 11.4705 4.92045C14.241 3.53383 17.3804 3.06355 20.4356 3.57752C20.7276 3.62916 20.9875 3.79403 21.1586 4.03625C21.3297 4.27847 21.3982 4.57846 21.3493 4.87096C21.3003 5.16346 21.1379 5.4248 20.8973 5.59814C20.6566 5.77148 20.3573 5.8428 20.0644 5.79658C18.2898 5.49807 16.4716 5.58982 14.7362 6.06546C13.0007 6.5411 11.3898 7.38919 10.0155 8.55072C8.64111 9.71224 7.53639 11.1593 6.77815 12.7912C6.01992 14.4231 5.6264 16.2006 5.62498 18C5.62231 21.0294 6.7357 23.9535 8.75248 26.2139C10.0072 24.3957 11.7714 22.9891 13.8234 22.171C12.7212 21.3028 11.9169 20.1127 11.5223 18.7663C11.1278 17.4198 11.1627 15.9839 11.6221 14.6581C12.0815 13.3324 12.9426 12.1828 14.0856 11.3691C15.2287 10.5555 16.5969 10.1182 18 10.1182C19.4031 10.1182 20.7713 10.5555 21.9143 11.3691C23.0574 12.1828 23.9185 13.3324 24.3779 14.6581C24.8373 15.9839 24.8722 17.4198 24.4776 18.7663C24.0831 20.1127 23.2788 21.3028 22.1765 22.171C24.2285 22.9891 25.9928 24.3957 27.2475 26.2139C29.2642 23.9535 30.3776 21.0294 30.375 18C30.375 17.3083 30.3176 16.6178 30.2034 15.9356C30.1775 15.7893 30.1809 15.6393 30.2133 15.4942C30.2458 15.3492 30.3066 15.212 30.3924 15.0907C30.4781 14.9693 30.587 14.8661 30.7129 14.787C30.8387 14.708 30.979 14.6547 31.1256 14.6302C31.2722 14.6056 31.4222 14.6104 31.5669 14.6442C31.7116 14.6779 31.8482 14.74 31.9688 14.8269C32.0894 14.9138 32.1916 15.0237 32.2694 15.1503C32.3473 15.2768 32.3993 15.4176 32.4225 15.5644ZM18 21.375C18.89 21.375 19.76 21.1111 20.5 20.6166C21.2401 20.1222 21.8168 19.4194 22.1574 18.5971C22.498 17.7748 22.5871 16.87 22.4135 15.9971C22.2399 15.1242 21.8113 14.3224 21.182 13.693C20.5526 13.0637 19.7508 12.6351 18.8779 12.4615C18.005 12.2878 17.1002 12.377 16.2779 12.7176C15.4556 13.0582 14.7528 13.6349 14.2584 14.375C13.7639 15.115 13.5 15.985 13.5 16.875C13.5 18.0685 13.9741 19.2131 14.818 20.057C15.6619 20.9009 16.8065 21.375 18 21.375ZM18 30.375C20.7469 30.3778 23.4159 29.4621 25.5825 27.7735C24.7686 26.5006 23.6475 25.4532 22.3223 24.7276C20.9972 24.002 19.5107 23.6217 18 23.6217C16.4892 23.6217 15.0027 24.002 13.6776 24.7276C12.3525 25.4532 11.2313 26.5006 10.4175 27.7735C12.5841 29.4621 15.2531 30.3778 18 30.375Z" fill="#3A3ADB"/>
</svg>
