<svg width="60" height="60" viewBox="0 0 60 60" fill="none" xmlns="http://www.w3.org/2000/svg">
<circle cx="39.5753" cy="8.58023" r="5.58023" fill="#3A3ADB"/>
<rect x="50.4752" y="55.5669" width="46.0945" height="6.91962" rx="3.45981" transform="rotate(-165 50.4752 55.5669)" fill="#72EDF2" stroke="#72EDF2" stroke-width="3.1887"/>
<path d="M20.3129 14.3642C20.7687 12.6634 22.5172 11.6538 24.2181 12.1093L53.2963 19.9013C54.9972 20.3572 56.0069 22.1056 55.5511 23.8066C55.0953 25.5074 53.3468 26.517 51.6459 26.0615L37.1869 22.1865L34.0765 27.3945L41.8754 29.4843C43.4779 29.9137 44.4657 31.4902 44.1937 33.0937C44.2134 33.6843 44.072 34.287 43.7465 34.832L37.7582 44.8574C36.8549 46.3689 34.8978 46.8619 33.3861 45.9589C31.8743 45.0559 31.3807 43.0987 32.2836 41.5869L36.4388 34.6298L30.6771 33.0859L25.9232 41.0449C25.0201 42.5567 23.062 43.0504 21.5502 42.1474C20.0384 41.2444 19.5447 39.2862 20.4476 37.7744L30.7826 20.4707L22.5677 18.2695C20.8668 17.8136 19.8571 16.0652 20.3129 14.3642Z" fill="#3A3ADB"/>
</svg>
