<svg width="60" height="60" viewBox="0 0 60 60" fill="none" xmlns="http://www.w3.org/2000/svg">
<path d="M19.9603 22.7677C23.8613 18.9402 30.915 19.8077 35.7151 24.7052C40.5151 29.6029 41.2441 36.6765 37.3431 40.504C36.3616 41.4668 35.1806 42.1309 33.886 42.5089C32.9188 42.7913 32.2059 43.7031 32.2415 44.7101C32.3456 47.6548 31.4494 50.3627 29.4769 52.298C24.9254 56.7629 16.3779 55.4253 10.3851 49.3107C4.3922 43.196 3.22281 34.6191 7.77374 30.1534C9.8078 28.1577 12.641 27.321 15.6868 27.5519C16.6903 27.6277 17.6272 26.9525 17.9495 25.9992C18.3596 24.7857 19.0268 23.6836 19.9603 22.7677ZM13.4476 39.9913C13.0179 39.5617 12.3206 39.5617 11.8909 39.9913C11.4614 40.4209 11.4616 41.1173 11.8909 41.547L17.8841 47.5402C18.3138 47.9695 19.0102 47.9697 19.4398 47.5402C19.8693 47.1106 19.8691 46.4142 19.4398 45.9845L13.4476 39.9913Z" fill="#3A3ADB"/>
<rect x="45.7783" y="6.21847" width="12.7311" height="1.72249" rx="0.861244" transform="rotate(45 45.7783 6.21847)" fill="#93959D" stroke="#72EDF2" stroke-width="1.72249"/>
<rect x="41.0273" y="14.6957" width="7.07715" height="1.10023" rx="0.550114" transform="rotate(45 41.0273 14.6957)" fill="#93959D" stroke="#72EDF2" stroke-width="1.10023"/>
<rect x="33.5547" y="22.7782" width="6.07718" height="1.10023" rx="0.550114" transform="rotate(45 33.5547 22.7782)" fill="#93959D" stroke="#72EDF2" stroke-width="1.10023"/>
<rect x="1.06686" width="30.5519" height="1.48245" rx="0.741226" transform="matrix(0.719658 -0.694329 0.719658 0.694329 24.2991 30.9378)" fill="#93959D" stroke="#72EDF2" stroke-width="1.48245"/>
<rect x="1.06686" width="30.5519" height="1.48245" rx="0.741226" transform="matrix(0.719658 -0.694329 0.719658 0.694329 28.263 34.6829)" fill="#93959D" stroke="#72EDF2" stroke-width="1.48245"/>
<circle cx="24.8051" cy="35.0214" r="4.30622" stroke="#72EDF2" stroke-width="3.44498"/>
</svg>
