<svg width="60" height="60" viewBox="0 0 60 60" fill="none" xmlns="http://www.w3.org/2000/svg">
<path d="M28.2362 38.8853C29.0423 37.5666 30.9577 37.5666 31.7638 38.8853L35.8713 45.6045C36.7134 46.982 35.7221 48.75 34.1076 48.75H25.8924C24.2779 48.75 23.2866 46.982 24.1286 45.6045L28.2362 38.8853Z" fill="#3A3ADB"/>
<path d="M13 22.9231C13 36.7818 24.2592 41.8476 29.5284 43.1385C29.7893 43.2024 30.0558 43.1974 30.3144 43.1249C36.8209 41.3006 46.8462 35.3631 46.8462 22.9231C46.8462 9.98991 36.6923 6.00082 29.9231 6C24 5.99928 13 8.70769 13 22.9231Z" fill="#3A3ADB"/>
<path d="M28.0002 12C23.8113 12.6667 19.5 17.5 19 23" stroke="#72EDF2" stroke-width="3" stroke-linecap="round"/>
</svg>
