<svg width="60" height="60" viewBox="0 0 60 60" fill="none" xmlns="http://www.w3.org/2000/svg">
<path d="M42.3379 44.4434C43.8722 44.4434 45.1162 45.6873 45.1162 47.2217C45.1162 48.7561 43.8723 50 42.3379 50H16.7783C15.2439 50 14 48.7561 14 47.2217C14 45.6873 15.244 44.4434 16.7783 44.4434H42.3379ZM41.7822 11.0244C43.6235 11.0244 45.1162 12.5171 45.1162 14.3584V39.2715C45.1162 41.1127 43.6235 42.6055 41.7822 42.6055H22.3779C19.5855 42.8979 14.0004 42.0791 14 46.9912V16.6572C14 16.4086 14.0248 16.1624 14.0947 15.9238C15.532 11.0244 22.3779 11.0244 22.3779 11.0244H41.7822Z" fill="#3A3ADB"/>
<path d="M28 24V11C28 10.4477 28.4477 10 29 10H37.6667C38.219 10 38.6667 10.4477 38.6667 11V24C38.6667 24.824 37.7259 25.2944 37.0667 24.8L33.9333 22.45C33.5778 22.1833 33.0889 22.1833 32.7333 22.45L29.6 24.8C28.9408 25.2944 28 24.824 28 24Z" fill="#72EDF2"/>
</svg>
