<svg width="60" height="60" viewBox="0 0 60 60" fill="none" xmlns="http://www.w3.org/2000/svg">
<circle cx="30.3631" cy="30.3628" r="20.3631" fill="#3A3ADB"/>
<path d="M24.0714 14.2459C23.21 14.3784 18.72 15.27 16.78 19.6666C16.7434 19.7497 16.7384 19.8446 16.7653 19.9313L18.3957 25.1848C18.4315 25.3002 18.5196 25.392 18.6334 25.4327L23.6384 27.2202C23.7591 27.2633 23.8933 27.2434 23.9963 27.1671L28.8628 23.5623C28.9606 23.4898 29.0183 23.3753 29.0183 23.2535V17.8808C29.0183 17.7572 28.9589 17.6412 28.8586 17.569L24.335 14.312C24.2582 14.2567 24.1649 14.2315 24.0714 14.2459Z" fill="#72EDF2" stroke="#72EDF2" stroke-width="0.768417" stroke-linecap="round"/>
<path d="M44.0955 20.176C43.7445 19.3783 41.7213 15.272 36.9723 14.5361C36.8826 14.5222 36.7896 14.5419 36.7129 14.5903L32.0604 17.5249C31.9581 17.5893 31.8922 17.6982 31.8824 17.8187L31.4512 23.1157C31.4408 23.2435 31.4948 23.368 31.5951 23.4477L36.3367 27.2154C36.432 27.2911 36.5575 27.3172 36.6751 27.2857L41.8648 25.8951C41.9842 25.8631 42.0809 25.7757 42.1247 25.6602L44.0999 20.4477C44.1334 20.3592 44.1336 20.2626 44.0955 20.176Z" fill="#72EDF2" stroke="#72EDF2" stroke-width="0.768417" stroke-linecap="round"/>
<path d="M44.6268 40.7221C45.3065 40.1767 48.7492 37.1596 48.2309 32.3819C48.2211 32.2917 48.1779 32.207 48.1113 32.1454L44.0726 28.411C43.9839 28.3289 43.8617 28.2934 43.7428 28.3151L38.5146 29.2696C38.3885 29.2926 38.2822 29.3769 38.2312 29.4945L35.8191 35.0496C35.7706 35.1613 35.7779 35.2893 35.8388 35.3948L38.5252 40.0477C38.5869 40.1547 38.6964 40.2255 38.8194 40.2379L44.3654 40.7967C44.4596 40.8062 44.5529 40.7814 44.6268 40.7221Z" fill="#72EDF2" stroke="#72EDF2" stroke-width="0.768417" stroke-linecap="round"/>
<path d="M25.9719 47.7237C26.7532 48.1099 30.9409 49.9588 35.0541 47.4738C35.1318 47.4269 35.1904 47.352 35.2182 47.2656L36.9007 42.0286C36.9377 41.9136 36.9184 41.7878 36.8485 41.6891L33.7779 37.3513C33.7039 37.2467 33.5826 37.1859 33.4544 37.1892L27.4002 37.3452C27.2785 37.3484 27.1655 37.409 27.0956 37.5087L24.0099 41.907C23.9389 42.0081 23.9209 42.1372 23.9615 42.2539L25.7941 47.5182C25.8252 47.6076 25.8871 47.6818 25.9719 47.7237Z" fill="#72EDF2" stroke="#72EDF2" stroke-width="0.768417" stroke-linecap="round"/>
<path d="M12.5518 32.0255C12.4266 32.8879 11.9659 37.4424 15.603 40.5835C15.6716 40.6428 15.761 40.6753 15.8517 40.675L21.3523 40.6524C21.4732 40.6519 21.5868 40.5945 21.6589 40.4976L24.8321 36.2342C24.9086 36.1314 24.9288 35.9972 24.886 35.8764L22.8622 30.1684C22.8215 30.0537 22.7288 29.965 22.6124 29.9294L17.4746 28.358C17.3564 28.3218 17.2281 28.3447 17.1297 28.4195L12.6921 31.7927C12.6167 31.85 12.5654 31.9318 12.5518 32.0255Z" fill="#72EDF2" stroke="#72EDF2" stroke-width="0.768417" stroke-linecap="round"/>
</svg>
