<svg width="60" height="60" viewBox="0 0 60 60" fill="none" xmlns="http://www.w3.org/2000/svg">
<path d="M25.2571 6C36.9371 6.00002 46.4055 15.4685 46.4056 27.1484C46.4056 38.8285 36.9372 48.2969 25.2571 48.2969C21.8091 48.2969 18.554 47.4715 15.678 46.0078L5.25226 47.3125C3.67263 47.5101 2.50609 45.8725 3.20929 44.4443L6.71515 37.3252C5.05449 34.3059 4.10871 30.8378 4.10871 27.1484C4.10879 15.4685 13.5771 6 25.2571 6ZM15.5013 29C14.6729 29 14.0013 29.6716 14.0013 30.5C14.0013 31.3284 14.6729 32 15.5013 32H35.5013C36.3296 31.9999 37.0013 31.3284 37.0013 30.5C37.0013 29.6716 36.3296 29.0001 35.5013 29H15.5013ZM15.5013 21C14.6729 21 14.0013 21.6716 14.0013 22.5C14.0013 23.3284 14.6729 24 15.5013 24H35.5013C36.3296 23.9999 37.0013 23.3284 37.0013 22.5C37.0013 21.6716 36.3296 21.0001 35.5013 21H15.5013Z" fill="#3A3ADB"/>
<path d="M41.5848 25C33.5299 25.0002 26.9999 31.53 26.9998 39.585C26.9998 47.64 33.5298 54.1697 41.5848 54.1699C43.9623 54.1699 46.2071 53.6009 48.1902 52.5918L54.2401 53.3486C55.8196 53.5462 56.9859 51.9085 56.283 50.4805L54.3738 46.6025C55.5187 44.5205 56.1707 42.1288 56.1707 39.585C56.1706 31.5299 49.6399 25 41.5848 25Z" fill="#72EDF2" fill-opacity="0.8"/>
</svg>
