<svg width="60" height="60" viewBox="0 0 60 60" fill="none" xmlns="http://www.w3.org/2000/svg">
<path d="M5 41.4464V13C5 11.3431 6.34315 10 8 10H23.18C23.18 10 28.7548 10 29.833 15.4934C29.8648 15.6555 29.8779 15.8206 29.8779 15.9858V49.2306C29.8779 44.0366 25.6823 44.7164 23.3915 44.4725C23.2504 44.4575 23.1088 44.4464 22.9668 44.4464H8C6.34315 44.4464 5 43.1032 5 41.4464Z" fill="#72EDF2"/>
<path d="M51.7559 10C53.4127 10 54.7559 11.3431 54.7559 13V41.4463C54.7559 43.1031 53.4127 44.4463 51.7559 44.4463H36.7891C36.6471 44.4463 36.5054 44.4576 36.3643 44.4727C34.0735 44.7165 29.878 44.0366 29.8779 49.2305V15.9854C29.878 15.8203 29.8911 15.6552 29.9229 15.4932C31.0012 9.99999 36.5762 10 36.5762 10H51.7559ZM36.5 32C35.6716 32 35 32.6716 35 33.5C35 34.3284 35.6716 35 36.5 35H49.5C50.3284 35 51 34.3284 51 33.5C51 32.6716 50.3284 32 49.5 32H36.5ZM36.5 25C35.6716 25 35 25.6716 35 26.5C35 27.3284 35.6716 28 36.5 28H49.5C50.3284 28 51 27.3284 51 26.5C51 25.6716 50.3284 25 49.5 25H36.5ZM36.5 18C35.6716 18 35 18.6716 35 19.5C35 20.3284 35.6716 21 36.5 21H49.5C50.3284 21 51 20.3284 51 19.5C51 18.6716 50.3284 18 49.5 18H36.5Z" fill="#3A3ADB"/>
</svg>
