<svg width="60" height="60" viewBox="0 0 60 60" fill="none" xmlns="http://www.w3.org/2000/svg">
<path d="M35.5381 5C35.9843 5 36.3937 5.15836 36.7129 5.42188C36.804 5.49706 36.8877 5.58079 36.9629 5.67188C37.1509 5.89969 37.2852 6.17339 37.3467 6.47363C37.3713 6.59383 37.3847 6.71823 37.3848 6.8457V16.6924C37.3847 17.712 36.5577 18.5381 35.5381 18.5381C34.5187 18.5379 33.6924 17.7118 33.6924 16.6924V8.69238H26.3076V16.6924C26.3076 17.7118 25.4813 18.5379 24.4619 18.5381C23.4423 18.5381 22.6153 17.712 22.6152 16.6924V6.8457C22.6153 6.71829 22.6277 6.59377 22.6523 6.47363C22.8246 5.63269 23.5691 5.00021 24.4609 5H35.5381Z" fill="#72EDF2"/>
<rect x="22.6152" y="45.3848" width="8.61539" height="3.69231" rx="1.84615" transform="rotate(90 22.6152 45.3848)" fill="#72EDF2"/>
<rect x="41.0771" y="45.3848" width="8.61539" height="3.69231" rx="1.84615" transform="rotate(90 41.0771 45.3848)" fill="#72EDF2"/>
<path d="M39.8457 12.3848C43.2444 12.3848 46 15.1404 46 18.5391V44.3848C46 47.7834 43.2444 50.5391 39.8457 50.5391H20.1543C16.7556 50.5391 14 47.7834 14 44.3848V18.5391C14 15.1404 16.7556 12.3848 20.1543 12.3848H39.8457ZM22.123 18.3457C21.0356 18.3458 20.1543 19.2279 20.1543 20.3154V42.6074C20.1543 43.6949 21.0356 44.577 22.123 44.5771C23.2106 44.5771 24.0928 43.695 24.0928 42.6074V20.3154C24.0928 19.2279 23.2106 18.3457 22.123 18.3457ZM30 18.3457C28.9124 18.3457 28.0303 19.2279 28.0303 20.3154V42.6074C28.0303 43.695 28.9124 44.5771 30 44.5771C31.0874 44.5769 31.9688 43.6948 31.9688 42.6074V20.3154C31.9688 19.228 31.0874 18.346 30 18.3457ZM37.877 18.3457C36.7894 18.3457 35.9072 19.2279 35.9072 20.3154V42.6074C35.9072 43.695 36.7894 44.5771 37.877 44.5771C38.9645 44.5771 39.8457 43.695 39.8457 42.6074V20.3154C39.8457 19.2279 38.9645 18.3457 37.877 18.3457Z" fill="#3A3ADB"/>
</svg>
