<svg width="171" height="170" viewBox="0 0 171 170" fill="none" xmlns="http://www.w3.org/2000/svg">
<circle cx="85" cy="85" r="85" fill="#ECECFC"/>
<ellipse cx="61.1584" cy="90.8197" rx="13.1584" ry="13.1331" fill="#3A3ADB" fill-opacity="0.5"/>
<ellipse cx="97.572" cy="56.1744" rx="8.19015" ry="8.17444" fill="#72EDF2"/>
<path d="M95.353 56.9364C96.5386 52.5209 101.086 49.9008 105.51 51.0839C109.934 52.2671 112.56 56.8059 111.374 61.2216C110.189 65.6371 105.641 68.2582 101.217 67.0751C100.536 66.8928 99.897 66.6296 99.3081 66.3007C94.8376 66.4687 90.8366 69.4256 89.645 73.8632C89.5926 74.0582 89.5454 74.2538 89.5053 74.4491C89.9457 76.5872 89.9087 78.8573 89.3042 81.1093C89.0112 82.2007 88.5997 83.2291 88.0893 84.1854C88.8172 86.4451 91.3435 87.9042 94.0981 87.5253C95.4019 87.3459 96.5441 86.7819 97.396 85.9882L100.507 88.3417L89.854 102.375L85.6284 99.1786C86.9128 97.726 87.5794 95.7674 87.2973 93.7255C87.0093 91.6412 85.7932 89.9076 84.1098 88.8622C80.6513 91.5046 76.0463 92.5732 71.5141 91.3612C63.7655 89.2889 59.1675 81.3392 61.2436 73.6054C63.32 65.8717 71.2841 61.2822 79.0327 63.3544C80.3619 63.7099 81.599 64.2375 82.7251 64.9081C86.1564 66.3705 90.1611 65.7645 92.7719 63.0643C94.2788 61.5058 95.071 59.5082 95.1665 57.4501L95.2426 57.4052C95.2751 57.2491 95.3111 57.0924 95.353 56.9364Z" fill="url(#paint0_linear_1670_27529)"/>
<ellipse cx="61.1584" cy="90.8197" rx="13.1584" ry="13.1331" fill="#3A3ADB" fill-opacity="0.2"/>
<path d="M103.32 84.1875C113.423 84.1875 121.652 92.306 121.988 102.449H122V120.482C122 121.321 121.32 122 120.482 122H103.389C103.366 122 103.343 122.001 103.32 122.001C103.297 122.001 103.274 122 103.25 122H102.684V121.987C92.662 121.648 84.6402 113.32 84.6401 103.094C84.6403 92.6521 93.0034 84.1875 103.32 84.1875Z" fill="url(#paint1_linear_1670_27529)"/>
<circle cx="146" cy="139" r="23" fill="#3A3ADB" stroke="white" stroke-width="4"/>
<path d="M154.75 131.125H151.718L150.227 128.889C150.147 128.77 150.039 128.672 149.912 128.604C149.786 128.536 149.644 128.5 149.5 128.5H142.5C142.356 128.5 142.214 128.536 142.088 128.604C141.961 128.672 141.853 128.77 141.773 128.889L140.281 131.125H137.25C136.554 131.125 135.886 131.402 135.394 131.894C134.902 132.386 134.625 133.054 134.625 133.75V146C134.625 146.696 134.902 147.364 135.394 147.856C135.886 148.348 136.554 148.625 137.25 148.625H154.75C155.446 148.625 156.114 148.348 156.606 147.856C157.098 147.364 157.375 146.696 157.375 146V133.75C157.375 133.054 157.098 132.386 156.606 131.894C156.114 131.402 155.446 131.125 154.75 131.125ZM149.938 139.438C149.938 140.216 149.707 140.978 149.274 141.625C148.841 142.273 148.226 142.777 147.507 143.075C146.787 143.373 145.996 143.451 145.232 143.299C144.468 143.147 143.766 142.772 143.216 142.222C142.665 141.671 142.29 140.969 142.138 140.206C141.986 139.442 142.064 138.65 142.362 137.931C142.66 137.211 143.165 136.596 143.812 136.164C144.46 135.731 145.221 135.5 146 135.5C147.044 135.5 148.046 135.915 148.784 136.653C149.523 137.392 149.938 138.393 149.938 139.438Z" fill="white"/>
<defs>
<linearGradient id="paint0_linear_1670_27529" x1="95.201" y1="91.8849" x2="95.201" y2="56.3908" gradientUnits="userSpaceOnUse">
<stop stop-color="#72EDF2"/>
<stop offset="1" stop-color="#3A3ADB"/>
</linearGradient>
<linearGradient id="paint1_linear_1670_27529" x1="121.969" y1="120.75" x2="91.2484" y2="88.7159" gradientUnits="userSpaceOnUse">
<stop offset="0.0625" stop-color="#3A3ADB"/>
<stop offset="1" stop-color="#72EDF2"/>
</linearGradient>
</defs>
</svg>
