<svg width="36" height="36" viewBox="0 0 36 36" fill="none" xmlns="http://www.w3.org/2000/svg">
<path d="M32.0977 8.86922L31.4423 8.49094C31.5192 8.08391 31.5192 7.66609 31.4423 7.25906L32.0977 6.88078C32.3561 6.7316 32.5447 6.48585 32.622 6.1976C32.6993 5.90935 32.6589 5.60221 32.5097 5.34375C32.3605 5.08529 32.1148 4.89668 31.8265 4.81941C31.5383 4.74213 31.2311 4.78253 30.9727 4.93172L30.3159 5.31141C30.0017 5.04177 29.6403 4.83248 29.25 4.69406V3.9375C29.25 3.63913 29.1315 3.35298 28.9205 3.142C28.7095 2.93103 28.4234 2.8125 28.125 2.8125C27.8266 2.8125 27.5405 2.93103 27.3295 3.142C27.1185 3.35298 27 3.63913 27 3.9375V4.69406C26.6097 4.83248 26.2484 5.04177 25.9341 5.31141L25.2773 4.93172C25.1494 4.85785 25.0081 4.80991 24.8616 4.79064C24.7151 4.77137 24.5662 4.78114 24.4235 4.81941C24.2808 4.85767 24.147 4.92366 24.0298 5.01363C23.9125 5.1036 23.8142 5.21577 23.7403 5.34375C23.6665 5.47173 23.6185 5.613 23.5992 5.7595C23.58 5.90601 23.5897 6.05487 23.628 6.1976C23.6663 6.34033 23.7323 6.47412 23.8222 6.59134C23.9122 6.70856 24.0244 6.80691 24.1523 6.88078L24.8077 7.25906C24.7308 7.66609 24.7308 8.08391 24.8077 8.49094L24.1523 8.86922C23.9378 8.99299 23.77 9.18413 23.6751 9.41298C23.5803 9.64183 23.5636 9.8956 23.6277 10.1349C23.6918 10.3742 23.8331 10.5856 24.0297 10.7364C24.2263 10.8872 24.4671 10.9688 24.7148 10.9688C24.9124 10.9694 25.1065 10.9174 25.2773 10.8183L25.9341 10.4386C26.2484 10.7082 26.6097 10.9175 27 11.0559V11.8125C27 12.1109 27.1185 12.397 27.3295 12.608C27.5405 12.819 27.8266 12.9375 28.125 12.9375C28.4234 12.9375 28.7095 12.819 28.9205 12.608C29.1315 12.397 29.25 12.1109 29.25 11.8125V11.0559C29.6403 10.9175 30.0017 10.7082 30.3159 10.4386L30.9727 10.8183C31.1435 10.9174 31.3376 10.9694 31.5352 10.9688C31.7829 10.9688 32.0237 10.8872 32.2203 10.7364C32.4169 10.5856 32.5582 10.3742 32.6223 10.1349C32.6864 9.8956 32.6697 9.64183 32.5749 9.41298C32.48 9.18413 32.3123 8.99299 32.0977 8.86922ZM27 7.875C27 7.6525 27.066 7.43499 27.1896 7.24998C27.3132 7.06498 27.4889 6.92078 27.6945 6.83564C27.9001 6.75049 28.1263 6.72821 28.3445 6.77162C28.5627 6.81502 28.7632 6.92217 28.9205 7.0795C29.0778 7.23684 29.185 7.43729 29.2284 7.65552C29.2718 7.87375 29.2495 8.09995 29.1644 8.30552C29.0792 8.51109 28.935 8.68679 28.75 8.8104C28.565 8.93402 28.3475 9 28.125 9C27.8266 9 27.5405 8.88147 27.3295 8.6705C27.1185 8.45952 27 8.17337 27 7.875ZM31.1273 14.6405C30.8331 14.6897 30.5704 14.8538 30.3972 15.0967C30.2239 15.3396 30.1542 15.6414 30.2034 15.9356C30.3177 16.6178 30.3751 17.3083 30.375 18C30.3777 21.0293 29.2643 23.9535 27.2475 26.2139C25.9928 24.3957 24.2285 22.9891 22.1766 22.1709C23.2788 21.3028 24.0831 20.1127 24.4777 18.7663C24.8722 17.4198 24.8373 15.9838 24.3779 14.6581C23.9185 13.3324 23.0574 12.1827 21.9144 11.3691C20.7713 10.5554 19.4031 10.1182 18 10.1182C16.5969 10.1182 15.2287 10.5554 14.0857 11.3691C12.9426 12.1827 12.0815 13.3324 11.6221 14.6581C11.1627 15.9838 11.1278 17.4198 11.5224 18.7663C11.9169 20.1127 12.7212 21.3028 13.8234 22.1709C11.7715 22.9891 10.0072 24.3957 8.75251 26.2139C7.17008 24.4307 6.13642 22.2284 5.77582 19.8718C5.41522 17.5151 5.74302 15.1045 6.71982 12.9297C7.69662 10.7549 9.28083 8.90861 11.282 7.61274C13.2831 6.31687 15.6159 5.62662 18 5.625C18.6917 5.62489 19.3822 5.68227 20.0644 5.79656C20.3573 5.84278 20.6567 5.77147 20.8973 5.59813C21.1379 5.42478 21.3004 5.16344 21.3493 4.87094C21.3982 4.57845 21.3297 4.27846 21.1586 4.03623C20.9875 3.79401 20.7277 3.62914 20.4356 3.5775C17.3805 3.06354 14.241 3.53381 11.4706 4.92043C8.70009 6.30705 6.44199 8.53826 5.02227 11.2919C3.60254 14.0455 3.09468 17.1791 3.57199 20.2402C4.0493 23.3013 5.48709 26.1315 7.67778 28.3222C9.86846 30.5129 12.6987 31.9507 15.7598 32.428C18.8209 32.9053 21.9545 32.3975 24.7081 30.9777C27.4618 29.558 29.693 27.2999 31.0796 24.5295C32.4662 21.759 32.9365 18.6195 32.4225 15.5644C32.3733 15.2701 32.2092 15.0075 31.9663 14.8342C31.7234 14.6609 31.4216 14.5913 31.1273 14.6405ZM13.5 16.875C13.5 15.985 13.7639 15.115 14.2584 14.3749C14.7529 13.6349 15.4557 13.0581 16.2779 12.7175C17.1002 12.3769 18.005 12.2878 18.8779 12.4615C19.7508 12.6351 20.5527 13.0637 21.182 13.693C21.8113 14.3224 22.2399 15.1242 22.4135 15.9971C22.5872 16.87 22.4981 17.7748 22.1575 18.5971C21.8169 19.4193 21.2401 20.1221 20.5001 20.6166C19.7601 21.1111 18.89 21.375 18 21.375C16.8065 21.375 15.6619 20.9009 14.818 20.057C13.9741 19.2131 13.5 18.0685 13.5 16.875ZM10.4175 27.7734C11.2314 26.5006 12.3525 25.4531 13.6776 24.7276C15.0028 24.002 16.4892 23.6217 18 23.6217C19.5108 23.6217 20.9972 24.002 22.3224 24.7276C23.6475 25.4531 24.7687 26.5006 25.5825 27.7734C23.4145 29.4595 20.7464 30.3749 18 30.3749C15.2536 30.3749 12.5855 29.4595 10.4175 27.7734Z" fill="#5E6068"/>
</svg>
