<svg width="520" height="68" viewBox="0 0 520 68" fill="none" xmlns="http://www.w3.org/2000/svg">
<rect width="520" height="68" rx="10" fill="#FF4949"/>
<path d="M197.5 25C199.5 24.9998 200.5 27.1178 200.5 28.7061V34.5293C200.5 36.6469 199 37.7061 197.5 37.7061H194.5V43H191.5V25C191.5 25 195.5 25.0002 197.5 25ZM194.5 27.6475V34.5293H197C197.5 34.5293 197.99 34.1735 198 33.4707V28.7061C198 28.1766 197.5 27.6475 197 27.6475H194.5Z" fill="white"/>
<path d="M212.5 43H209.5L209 39.5H206L205.5 43H202.5L205.5 25H209.5L212.5 43ZM206 37H209L207.5 28.5L206 37Z" fill="white"/>
<path d="M219.594 43C218.611 43 217.789 42.8867 217.127 42.6602C216.475 42.427 215.957 42.0905 215.572 41.6507C215.197 41.2043 214.929 40.6646 214.768 40.0316C214.607 39.392 214.527 38.6657 214.527 37.8529V36.2837H217.932V38.0527C217.932 38.9989 218.039 39.6785 218.253 40.0916C218.468 40.5047 218.892 40.7113 219.527 40.7113C219.956 40.7113 220.277 40.638 220.492 40.4914C220.715 40.3381 220.863 40.0983 220.934 39.7718C221.015 39.4386 221.055 39.0056 221.055 38.4725C221.055 37.8129 220.867 37.2099 220.492 36.6635C220.126 36.1172 219.567 35.5508 218.816 34.9645L217.074 33.6252C216.591 33.2521 216.153 32.8556 215.76 32.4359C215.376 32.0161 215.067 31.5497 214.835 31.0366C214.612 30.5169 214.5 29.9373 214.5 29.2976C214.5 28.3715 214.652 27.5886 214.956 26.9489C215.26 26.3093 215.773 25.8262 216.497 25.4997C217.221 25.1666 218.213 25 219.473 25C220.42 25 221.198 25.1099 221.806 25.3298C222.422 25.543 222.9 25.8595 223.24 26.2793C223.588 26.6924 223.834 27.1988 223.977 27.7984C224.12 28.3914 224.192 29.0711 224.192 29.8373V30.9267H220.881V29.6674C220.881 29.1344 220.84 28.6913 220.76 28.3381C220.689 27.985 220.55 27.7218 220.345 27.5486C220.139 27.3687 219.84 27.2787 219.446 27.2787C219.071 27.2787 218.767 27.342 218.535 27.4686C218.303 27.5886 218.133 27.7785 218.025 28.0383C217.927 28.2915 217.878 28.6213 217.878 29.0278C217.878 29.3942 217.941 29.7107 218.066 29.9772C218.191 30.2438 218.383 30.5003 218.642 30.7468C218.901 30.9933 219.223 31.2698 219.607 31.5763L221.551 33.1455C222.48 33.8917 223.204 34.668 223.723 35.4742C224.241 36.2804 224.5 37.1799 224.5 38.1727C224.5 39.2254 224.348 40.1116 224.044 40.8312C223.74 41.5441 223.231 42.0838 222.516 42.4503C221.801 42.8168 220.827 43 219.594 43Z" fill="white"/>
<path d="M231.594 43C230.611 43 229.789 42.8867 229.127 42.6602C228.475 42.427 227.957 42.0905 227.572 41.6507C227.197 41.2043 226.929 40.6646 226.768 40.0316C226.607 39.392 226.527 38.6657 226.527 37.8529V36.2837H229.932V38.0527C229.932 38.9989 230.039 39.6785 230.253 40.0916C230.468 40.5047 230.892 40.7113 231.527 40.7113C231.956 40.7113 232.277 40.638 232.492 40.4914C232.715 40.3381 232.863 40.0983 232.934 39.7718C233.015 39.4386 233.055 39.0056 233.055 38.4725C233.055 37.8129 232.867 37.2099 232.492 36.6635C232.126 36.1172 231.567 35.5508 230.816 34.9645L229.074 33.6252C228.591 33.2521 228.153 32.8556 227.76 32.4359C227.376 32.0161 227.067 31.5497 226.835 31.0366C226.612 30.5169 226.5 29.9373 226.5 29.2976C226.5 28.3715 226.652 27.5886 226.956 26.9489C227.26 26.3093 227.773 25.8262 228.497 25.4997C229.221 25.1666 230.213 25 231.473 25C232.42 25 233.198 25.1099 233.806 25.3298C234.422 25.543 234.9 25.8595 235.24 26.2793C235.588 26.6924 235.834 27.1988 235.977 27.7984C236.12 28.3914 236.192 29.0711 236.192 29.8373V30.9267H232.881V29.6674C232.881 29.1344 232.84 28.6913 232.76 28.3381C232.689 27.985 232.55 27.7218 232.345 27.5486C232.139 27.3687 231.84 27.2787 231.446 27.2787C231.071 27.2787 230.767 27.342 230.535 27.4686C230.303 27.5886 230.133 27.7785 230.025 28.0383C229.927 28.2915 229.878 28.6213 229.878 29.0278C229.878 29.3942 229.941 29.7107 230.066 29.9772C230.191 30.2438 230.383 30.5003 230.642 30.7468C230.901 30.9933 231.223 31.2698 231.607 31.5763L233.551 33.1455C234.48 33.8917 235.204 34.668 235.723 35.4742C236.241 36.2804 236.5 37.1799 236.5 38.1727C236.5 39.2254 236.348 40.1116 236.044 40.8312C235.74 41.5441 235.231 42.0838 234.516 42.4503C233.801 42.8168 232.827 43 231.594 43Z" fill="white"/>
<path d="M253.633 38.8906V40.6875H237.5V38.8906H244.453V36.0195H239.414V30.2383H249.57V28.0508H239.375V26.293H251.719V31.957H241.582V34.2422H252.129V36.0195H246.602V38.8906H253.633ZM274.238 25.1016V37.8555H272.051V25.1016H274.238ZM274.727 40.6289V42.3867H262.559V36.5664H264.746V40.6289H274.727ZM264.609 26.2539C267.285 26.2539 269.355 28.1094 269.355 30.668C269.355 33.2852 267.285 35.1016 264.609 35.1016C261.914 35.1016 259.844 33.2852 259.844 30.668C259.844 28.1094 261.914 26.2539 264.609 26.2539ZM264.609 28.1484C263.105 28.1484 261.953 29.1445 261.973 30.668C261.953 32.2305 263.105 33.207 264.609 33.207C266.074 33.207 267.227 32.2305 267.227 30.668C267.227 29.1445 266.074 28.1484 264.609 28.1484ZM292.91 33.3047V35.0625H276.816V33.3047H292.91ZM284.844 36.2344C288.652 36.2344 290.938 37.4258 290.957 39.4766C290.938 41.5469 288.652 42.7188 284.844 42.7188C280.996 42.7188 278.691 41.5469 278.691 39.4766C278.691 37.4258 280.996 36.2344 284.844 36.2344ZM284.844 37.9336C282.266 37.9336 280.879 38.4609 280.898 39.4766C280.879 40.4922 282.266 41.0195 284.844 41.0195C287.363 41.0195 288.77 40.4922 288.789 39.4766C288.77 38.4609 287.363 37.9336 284.844 37.9336ZM291.465 25.9219V27.6992H286.367C286.689 29.1641 288.809 30.4824 292.148 30.8047L291.387 32.5234C288.184 32.1816 285.801 30.9219 284.844 29.125C283.887 30.9121 281.543 32.1816 278.34 32.5234L277.598 30.8047C280.869 30.4824 282.998 29.1641 283.34 27.6992H278.281V25.9219H291.465ZM307.93 25.082V32.1133H310.645V33.9102H307.93V42.7383H305.781V25.082H307.93ZM304.414 27.7969V29.5352H294.004V27.7969H298.184V25.3359H300.352V27.7969H304.414ZM299.277 30.6875C301.816 30.6875 303.711 32.4062 303.711 34.8477C303.711 37.2891 301.816 38.9883 299.277 38.9883C296.699 38.9883 294.805 37.2891 294.824 34.8477C294.805 32.4062 296.699 30.6875 299.277 30.6875ZM299.277 32.4648C297.891 32.4648 296.895 33.4023 296.895 34.8477C296.895 36.293 297.891 37.2109 299.277 37.1914C300.625 37.2109 301.621 36.293 301.641 34.8477C301.621 33.4023 300.625 32.4648 299.277 32.4648ZM326.133 25.082V42.7383H323.945V25.082H326.133ZM320.859 26.957C320.859 32.2109 318.828 36.6836 312.637 39.6133L311.504 37.875C316.123 35.6777 318.271 32.6895 318.652 28.6758H312.402V26.957H320.859Z" fill="white"/>
</svg>
