<svg width="520" height="68" viewBox="0 0 520 68" fill="none" xmlns="http://www.w3.org/2000/svg">
<rect width="520" height="68" rx="10" fill="#93959D"/>
<path d="M223.438 25.082V42.7383H221.27V25.082H223.438ZM208.809 37.8359C210.215 37.8262 211.807 37.8262 213.477 37.7773V36.1562C211.484 35.8438 210.195 34.623 210.195 32.9531C210.195 30.9609 211.953 29.6328 214.531 29.6328C217.129 29.6328 218.926 30.9609 218.926 32.9531C218.926 34.6133 217.627 35.8242 215.645 36.1367V37.6992C217.197 37.6309 218.76 37.5039 220.234 37.3086L220.391 38.9297C216.504 39.5938 212.305 39.6328 209.121 39.6328L208.809 37.8359ZM219.922 27.1133V28.832H209.18V27.1133H213.477V25.1406H215.645V27.1133H219.922ZM214.531 31.293C213.203 31.3125 212.246 31.918 212.266 32.9531C212.246 33.9688 213.203 34.5742 214.531 34.5547C215.918 34.5742 216.836 33.9688 216.836 32.9531C216.836 31.918 215.918 31.3125 214.531 31.293ZM240.82 25.1016V38.4609H238.633V36.918H235.176V35.3945H238.633V25.1016H240.82ZM241.23 40.6289V42.3867H228.281V37.1719H230.449V40.6289H241.23ZM225.938 33.0312C229.199 33.0117 233.574 32.9727 237.324 32.5039L237.441 34.0664C235.986 34.3105 234.482 34.4766 232.988 34.5742V37.9727H230.82V34.6914C229.17 34.7598 227.598 34.7695 226.211 34.7695L225.938 33.0312ZM231.699 25.7461C234.277 25.7461 236.074 27.0156 236.094 28.8711C236.074 30.7656 234.277 31.9766 231.699 31.9766C229.082 31.9766 227.285 30.7656 227.285 28.8711C227.285 27.0156 229.082 25.7461 231.699 25.7461ZM231.699 27.3477C230.293 27.3477 229.336 27.9141 229.336 28.8711C229.336 29.8281 230.293 30.3945 231.699 30.3945C233.047 30.3945 234.004 29.8281 234.023 28.8711C234.004 27.9141 233.047 27.3477 231.699 27.3477ZM257.129 25.082V31.9766H259.746V33.793H257.129V42.6992H254.961V25.082H257.129ZM252.461 26.918C252.461 32.1133 250.312 36.6641 244.434 39.5547L243.203 37.875C247.5 35.7363 249.824 32.7285 250.273 28.7148H244.16V26.918H252.461ZM275.293 25.082V34.5547H273.105V25.082H275.293ZM265.762 35.375V37.1914H273.125V35.375H275.293V42.5234H263.613V35.375H265.762ZM265.762 40.7656H273.125V38.8906H265.762V40.7656ZM265.664 25.8633C268.379 25.8438 270.41 27.543 270.41 30.0039C270.41 32.4062 268.379 34.1055 265.664 34.1055C262.93 34.1055 260.898 32.4062 260.898 30.0039C260.898 27.543 262.93 25.8438 265.664 25.8633ZM265.664 27.6797C264.121 27.6797 263.008 28.5781 263.027 30.0039C263.008 31.4102 264.121 32.3086 265.664 32.3281C267.188 32.3086 268.281 31.4102 268.281 30.0039C268.281 28.5781 267.188 27.6797 265.664 27.6797ZM291.699 25.082V32.1133H294.414V33.9102H291.699V42.7383H289.551V25.082H291.699ZM288.184 27.7969V29.5352H277.773V27.7969H281.953V25.3359H284.121V27.7969H288.184ZM283.047 30.6875C285.586 30.6875 287.48 32.4062 287.48 34.8477C287.48 37.2891 285.586 38.9883 283.047 38.9883C280.469 38.9883 278.574 37.2891 278.594 34.8477C278.574 32.4062 280.469 30.6875 283.047 30.6875ZM283.047 32.4648C281.66 32.4648 280.664 33.4023 280.664 34.8477C280.664 36.293 281.66 37.2109 283.047 37.1914C284.395 37.2109 285.391 36.293 285.41 34.8477C285.391 33.4023 284.395 32.4648 283.047 32.4648ZM309.902 25.082V42.7383H307.715V25.082H309.902ZM304.629 26.957C304.629 32.2109 302.598 36.6836 296.406 39.6133L295.273 37.875C299.893 35.6777 302.041 32.6895 302.422 28.6758H296.172V26.957H304.629Z" fill="white"/>
</svg>
