<svg width="214" height="36" viewBox="0 0 214 36" fill="none" xmlns="http://www.w3.org/2000/svg">
<ellipse cx="6.40135" cy="20.8316" rx="6.40135" ry="6.38923" fill="#3A3ADB" fill-opacity="0.5"/>
<ellipse cx="24.116" cy="3.97684" rx="3.98438" ry="3.97684" fill="#72EDF2"/>
<path d="M23.0363 4.34804C23.6131 2.20001 25.8256 0.925077 27.9777 1.50039C30.1299 2.07597 31.4076 4.28391 30.8313 6.43203C30.2546 8.58023 28.0421 9.85518 25.8898 9.27968C25.5583 9.19101 25.2475 9.06268 24.9611 8.90273C22.7862 8.98434 20.8398 10.4236 20.26 12.5824C20.2343 12.678 20.2102 12.7738 20.1906 12.8695C20.4045 13.9093 20.3879 15.0128 20.094 16.1078C19.952 16.6367 19.7511 17.1343 19.5041 17.598C19.856 18.7005 21.0847 19.4145 22.427 19.2299C23.0606 19.1426 23.6153 18.8675 24.0295 18.4818L25.5441 19.6264L20.3615 26.4535L18.3049 24.8978C18.9298 24.1912 19.2555 23.2389 19.1184 22.2455C18.9781 21.2311 18.3862 20.387 17.5666 19.8783C15.8841 21.1638 13.6446 21.6847 11.4397 21.0951C7.67019 20.087 5.43281 16.2198 6.44258 12.4574C7.45268 8.69508 11.3274 6.46219 15.0969 7.47011C15.7292 7.63922 16.3177 7.89044 16.8557 8.20644C18.5335 8.93921 20.5014 8.65229 21.7815 7.32851C22.5142 6.5704 22.9 5.59911 22.9465 4.59804L22.9836 4.57558C22.9993 4.49997 23.0161 4.42358 23.0363 4.34804Z" fill="url(#paint0_linear_1195_4936)"/>
<ellipse cx="6.40135" cy="20.8316" rx="6.40135" ry="6.38923" fill="#3A3ADB" fill-opacity="0.5"/>
<path d="M26.9119 17.6045C31.8271 17.6045 35.8287 21.5544 35.9919 26.4893H35.9998V35.2627C35.9997 35.6698 35.6696 36 35.2625 36H26.6033V35.9922C21.7277 35.8272 17.8251 31.7778 17.825 26.8027C17.825 21.723 21.8932 17.6048 26.9119 17.6045Z" fill="url(#paint1_linear_1195_4936)"/>
<path d="M189.514 36C173.175 36 165.028 28.5333 165.028 18.0444C165.028 5.68889 175.624 0 189.514 0C204.25 0 212.442 5.51111 214 14.9778L195.079 18.0444C195.079 15.3333 192.541 14.2222 189.514 14.2222C186.308 14.2222 183.949 15.4667 183.949 17.9556C183.949 20.5333 186.308 21.7778 189.514 21.7778C192.63 21.7778 195.079 20.4889 195.079 18.0444L214 19.9556C212.709 28.7111 205.363 36 189.514 36Z" fill="#3A3ADB"/>
<path d="M144.158 12.533H144.114V14.9775C144.114 15.0663 144.114 15.0663 144.158 15.0663H162.857V21.333H144.158C144.114 21.333 144.114 21.333 144.114 21.4219V23.9108H144.158H163.791V34.6663H126.083V8.31078C126.083 5.99967 126.083 3.64412 126.083 1.33301H163.524V12.533H144.158Z" fill="#3A3ADB"/>
<path d="M97.865 17.9997V18.3108C97.865 23.7775 97.865 29.1997 97.865 34.6663H79.3892V8.6219C79.3892 6.17745 79.3892 3.77745 79.3892 1.33301H97.865V17.6886C97.865 17.7775 97.865 17.9108 97.865 17.9997ZM97.865 17.9997C100.18 12.4441 102.451 6.88857 104.766 1.33301H124.8C122.217 6.53301 117.009 16.8886 117.009 16.8886C117.009 16.933 122.485 28.7552 125.245 34.6663H104.32L97.865 17.9997Z" fill="#3A3ADB"/>
<path d="M58.0749 12.533H58.0304V14.9775C58.0304 15.0663 58.0304 15.0663 58.0749 15.0663H76.7733V21.333H58.0749C58.0304 21.333 58.0304 21.333 58.0304 21.4219V23.9108H58.0749H77.7082V34.6663H39.9998V8.31078C39.9998 5.99967 39.9998 3.64412 39.9998 1.33301H77.4411V12.533H58.0749Z" fill="#3A3ADB"/>
<defs>
<linearGradient id="paint0_linear_1195_4936" x1="22.9628" y1="21.3502" x2="22.9628" y2="4.0823" gradientUnits="userSpaceOnUse">
<stop stop-color="#72EDF2"/>
<stop offset="1" stop-color="#3A3ADB"/>
</linearGradient>
<linearGradient id="paint1_linear_1195_4936" x1="35.9847" y1="35.3913" x2="21.0395" y2="19.8077" gradientUnits="userSpaceOnUse">
<stop offset="0.0625" stop-color="#3A3ADB"/>
<stop offset="1" stop-color="#72EDF2"/>
</linearGradient>
</defs>
</svg>
