<svg width="30" height="30" viewBox="0 0 30 30" fill="none" xmlns="http://www.w3.org/2000/svg">
<ellipse cx="5.33449" cy="17.3575" rx="5.33449" ry="5.3243" fill="#3A3ADB" fill-opacity="0.5"/>
<ellipse cx="20.0967" cy="3.31302" rx="3.32034" ry="3.31399" fill="#72EDF2"/>
<path d="M19.1973 3.62199C19.678 1.83192 21.5219 0.769284 23.3155 1.24894C25.1088 1.72881 26.173 3.56923 25.6924 5.35929C25.2119 7.14923 23.3686 8.2115 21.5752 7.73234C21.2957 7.65757 21.0331 7.54951 20.792 7.41398C18.9833 7.4857 17.3661 8.6843 16.8838 10.4804C16.8622 10.561 16.8417 10.6418 16.8252 10.7226C17.0035 11.5891 16.9892 12.5091 16.7442 13.4218C16.626 13.862 16.4584 14.276 16.253 14.662C16.5473 15.5791 17.5711 16.1722 18.6885 16.0185C19.2164 15.9457 19.6783 15.7166 20.0235 15.3954L21.2862 16.3495L16.9678 22.04L15.252 20.7431C15.7722 20.1543 16.0459 19.3624 15.9317 18.5351C15.8148 17.6898 15.3206 16.9871 14.6377 16.5634C13.2357 17.6346 11.3697 18.0685 9.53225 17.5771C6.39118 16.7369 4.52689 13.515 5.36819 10.3798C6.20989 7.24458 9.43889 5.38284 12.5801 6.22257C13.1044 6.3628 13.5935 6.57045 14.0401 6.83195C15.4397 7.44618 17.083 7.20931 18.1514 6.10441C18.7623 5.47231 19.0827 4.66172 19.1211 3.82706L19.1533 3.80851C19.1663 3.74643 19.1806 3.68401 19.1973 3.62199Z" fill="url(#paint0_linear_1142_18324)"/>
<ellipse cx="5.33449" cy="17.3575" rx="5.33449" ry="5.3243" fill="#3A3ADB" fill-opacity="0.5"/>
<path d="M22.4272 14.6699C26.5227 14.6701 29.8559 17.9607 29.9927 22.0723H30.0005V29.4248C30.0005 29.7415 29.7429 29.998 29.4263 29.998H22.4985C22.4748 29.9983 22.451 30 22.4272 30C22.4036 30 22.3796 29.9983 22.356 29.998H22.1694V29.9922C18.1064 29.8547 14.8542 26.4807 14.854 22.335C14.854 18.1018 18.2449 14.67 22.4272 14.6699Z" fill="url(#paint1_linear_1142_18324)"/>
<defs>
<linearGradient id="paint0_linear_1142_18324" x1="19.1354" y1="17.7878" x2="19.1354" y2="3.40011" gradientUnits="userSpaceOnUse">
<stop stop-color="#72EDF2"/>
<stop offset="1" stop-color="#3A3ADB"/>
</linearGradient>
<linearGradient id="paint1_linear_1142_18324" x1="29.9879" y1="29.4928" x2="17.5332" y2="16.5057" gradientUnits="userSpaceOnUse">
<stop offset="0.0625" stop-color="#3A3ADB"/>
<stop offset="1" stop-color="#72EDF2"/>
</linearGradient>
</defs>
</svg>
