<svg width="28" height="26" viewBox="0 0 28 26" fill="none" xmlns="http://www.w3.org/2000/svg">
<path d="M14.0694 0.583984C6.60251 0.583984 0.580811 5.40129 0.580811 11.2496C0.580811 15.0456 3.08584 18.3696 6.84337 20.2676L5.57159 25.0176C5.54761 25.0888 5.54392 25.1652 5.56094 25.2384C5.57796 25.3115 5.61501 25.3785 5.66794 25.4318C5.74512 25.4999 5.84443 25.5376 5.94735 25.5378C6.03267 25.5309 6.11363 25.4972 6.17858 25.4415L11.6511 21.7514C12.4589 21.8629 13.2732 21.9208 14.0887 21.9248C21.5459 21.9248 27.5773 17.1075 27.5773 11.2496C27.5773 5.39165 21.5267 0.583984 14.0694 0.583984Z" fill="#392020"/>
<path d="M5.30136 9.56306H3.82725C3.64454 9.56836 3.46409 9.52156 3.30697 9.42816C3.23722 9.38446 3.17724 9.32678 3.13082 9.2588C3.0844 9.19082 3.05252 9.11398 3.0372 9.0331C3.03252 8.98183 3.03252 8.93031 3.0372 8.87903C3.03262 8.78309 3.05125 8.68739 3.0915 8.60018C3.13176 8.51296 3.19245 8.43677 3.26843 8.37801C3.4364 8.25636 3.63914 8.1921 3.84651 8.19489H8.28812C8.47228 8.18842 8.65396 8.23891 8.80839 8.33943C8.8798 8.3812 8.94103 8.43836 8.98768 8.50668C9.03434 8.57499 9.06524 8.65278 9.07816 8.73449C9.08287 8.78255 9.08287 8.83097 9.07816 8.87903C9.08271 8.97636 9.06412 9.07336 9.02393 9.16212C8.98374 9.25088 8.92308 9.32879 8.84693 9.38958C8.68305 9.51109 8.48228 9.57239 8.27848 9.56306H6.85255V14.6309C6.85834 14.7389 6.84163 14.8468 6.80348 14.948C6.76534 15.0492 6.70658 15.1414 6.63095 15.2186C6.55842 15.2925 6.47124 15.3504 6.37499 15.3886C6.27875 15.4267 6.17558 15.4443 6.07213 15.4402C5.89119 15.4454 5.71408 15.3875 5.57113 15.2765C5.43503 15.168 5.34267 15.014 5.311 14.8429C5.30147 14.7725 5.30147 14.7013 5.311 14.6309L5.30136 9.56306Z" fill="#FEE500"/>
<path d="M9.50348 8.57125C9.54586 8.4127 9.64538 8.27541 9.78289 8.18584C9.92941 8.10279 10.0964 8.06272 10.2646 8.07023H10.6307C10.8093 8.06383 10.9861 8.1072 11.1414 8.19548C11.306 8.30615 11.4229 8.47467 11.469 8.66757L13.3959 14.1112C13.4459 14.2532 13.4877 14.3981 13.5212 14.5448C13.5245 14.6058 13.5245 14.6669 13.5212 14.7278C13.5244 14.8217 13.5071 14.9152 13.4705 15.0018C13.4339 15.0883 13.3789 15.1658 13.3092 15.2289C13.2417 15.2981 13.1607 15.3526 13.0711 15.3891C12.9816 15.4255 12.8855 15.4431 12.7889 15.4408C12.6403 15.4556 12.4911 15.4199 12.3652 15.3395C12.2394 15.2591 12.1443 15.1387 12.0952 14.9976L11.6906 13.8126H9.15663L8.75197 14.9976C8.70411 15.1415 8.60785 15.2643 8.4796 15.3451C8.35135 15.4259 8.19904 15.4597 8.04864 15.4408C7.88572 15.4451 7.72613 15.3941 7.59581 15.2963C7.46883 15.1953 7.38316 15.0514 7.35494 14.8917C7.34983 14.8372 7.34983 14.7823 7.35494 14.7278C7.33839 14.6322 7.33839 14.5345 7.35494 14.4389C7.35494 14.3329 7.42238 14.2172 7.46092 14.1112L9.50348 8.57125ZM10.467 9.83345L9.55165 12.7239H11.3726L10.467 9.83345Z" fill="#FEE500"/>
<path d="M13.7418 8.87954C13.732 8.66332 13.8082 8.45203 13.9538 8.29184C14.0278 8.21721 14.1166 8.15888 14.2145 8.12071C14.3124 8.08254 14.4172 8.06528 14.5222 8.07014C14.7027 8.06803 14.8788 8.12565 15.0232 8.23397C15.157 8.34699 15.2459 8.50419 15.2737 8.67713C15.2832 8.74424 15.2832 8.81243 15.2737 8.87954V13.9474H17.9233C18.1069 13.945 18.2874 13.9951 18.4435 14.0918C18.5137 14.1351 18.574 14.1927 18.6204 14.2607C18.6669 14.3288 18.6986 14.4058 18.7133 14.4869C18.7133 14.4869 18.7133 14.5833 18.7133 14.6314C18.7179 14.7274 18.6993 14.823 18.659 14.9102C18.6188 14.9974 18.5581 15.0737 18.4821 15.1325C18.3141 15.2541 18.1114 15.3183 17.904 15.3155H14.6475C14.4401 15.3288 14.2339 15.2748 14.0597 15.1614C13.904 15.0449 13.8002 14.8719 13.7707 14.6797C13.7636 14.5738 13.7636 14.4675 13.7707 14.3616L13.7418 8.87954Z" fill="#FEE500"/>
<path d="M18.887 8.87885C18.8812 8.66326 18.9569 8.45343 19.0989 8.29115C19.2433 8.15994 19.4286 8.08245 19.6234 8.07192C19.8182 8.06139 20.0107 8.1184 20.1684 8.23329C20.3051 8.34531 20.3974 8.50244 20.4285 8.67645C20.4333 8.7438 20.4333 8.8115 20.4285 8.87885V11.2393L22.8661 8.42593C22.96 8.32996 23.0598 8.23995 23.1648 8.15625C23.2637 8.09732 23.3772 8.0672 23.4924 8.06945C23.6608 8.06853 23.8254 8.11897 23.9645 8.214C24.03 8.25811 24.0859 8.31503 24.129 8.38124C24.172 8.44746 24.2012 8.52164 24.215 8.59941C24.2189 8.61848 24.2189 8.6382 24.215 8.65727C24.2103 8.67951 24.2103 8.70243 24.215 8.72467C24.2146 8.82605 24.1881 8.92567 24.1379 9.01375C24.0868 9.10702 24.0254 9.19418 23.9548 9.27379L22.3555 11.0274L24.2824 14.0141V14.1104C24.3825 14.2485 24.4605 14.4014 24.5136 14.5634V14.6115C24.5248 14.7231 24.5087 14.8358 24.4667 14.9398C24.4248 15.0439 24.3582 15.1361 24.2728 15.2088C24.112 15.3303 23.9154 15.3948 23.714 15.3919C23.5801 15.3974 23.4472 15.3674 23.3286 15.3051C23.2002 15.2191 23.0945 15.1034 23.0203 14.9679L21.2282 12.0775L20.3707 12.9736V14.5825C20.3765 14.7981 20.3008 15.008 20.1588 15.1702C20.0826 15.2446 19.992 15.3028 19.8926 15.3409C19.7932 15.379 19.687 15.3964 19.5807 15.3919C19.4029 15.3956 19.2293 15.3377 19.0893 15.2281C18.9532 15.1196 18.8608 14.9657 18.8292 14.7946C18.8196 14.7242 18.8196 14.6529 18.8292 14.5825L18.887 8.87885Z" fill="#FEE500"/>
</svg>
