<svg width="60" height="60" viewBox="0 0 60 60" fill="none" xmlns="http://www.w3.org/2000/svg">
<g clip-path="url(#clip0_707_9027)">
<rect x="28.6084" y="6.02344" width="8.65583" height="3.50168" rx="1.75084" transform="rotate(86.6709 28.6084 6.02344)" fill="#72EDF2"/>
<rect x="42.7705" y="25.8623" width="8.65583" height="3.50168" rx="1.75084" transform="rotate(42.0326 42.7705 25.8623)" fill="#72EDF2"/>
<rect x="49.1982" y="18.9531" width="9.64181" height="3.50168" rx="1.75084" transform="rotate(156.274 49.1982 18.9531)" fill="#72EDF2"/>
<path d="M12.1819 48.9799C10.9011 49.3936 9.65195 48.2676 9.93097 46.9509L16.6431 15.2765C16.9227 13.9571 18.5264 13.4359 19.5282 14.339L43.6271 36.0626C44.6289 36.9657 44.2764 38.6147 42.9929 39.0292L12.1819 48.9799Z" fill="#3A3ADB"/>
<path d="M9.30602 49.9101L15.1957 22.2185L36.2508 41.1983L9.30602 49.9101Z" fill="#72EDF2"/>
<path d="M9.30559 49.9107L13.0849 32.1027L26.6296 44.3125L9.30559 49.9107Z" fill="#3A3ADB"/>
<path d="M42.4944 9.11154C42.6477 9.56409 42.1423 11.2457 40.7692 12.2708C39.0527 13.5522 35.3102 15.8358 34.8413 16.356C34.3724 16.8762 32.9657 18.4367 33.1161 19.5152" stroke="#3A3ADB" stroke-width="4.52656" stroke-linecap="round"/>
</g>
<defs>
<clipPath id="clip0_707_9027">
<rect width="60" height="60" fill="white"/>
</clipPath>
</defs>
</svg>
