<svg width="60" height="60" viewBox="0 0 60 60" fill="none" xmlns="http://www.w3.org/2000/svg">
<path d="M37.9199 17.4004C28.6415 17.4004 21.1201 24.9218 21.1201 34.2002C21.1201 43.4786 28.6415 51 37.9199 51C38.4719 51 39.0175 50.9724 39.5557 50.9203C39.5792 50.918 39.5996 50.9365 39.5996 50.9601C39.5996 50.9821 39.6175 51 39.6395 51H51.3597C53.2154 51 54.7197 49.4957 54.7197 47.64V35.9198C54.7197 35.8978 54.7019 35.8799 54.6798 35.8799C54.6562 35.8799 54.6378 35.8595 54.64 35.836C54.6921 35.2978 54.7197 34.7521 54.7197 34.2002C54.7197 24.9219 47.1982 17.4005 37.9199 17.4004Z" fill="#72EDF2"/>
<path d="M22.7998 9C32.0781 9 39.5995 16.5215 39.5996 25.7998C39.5996 35.0782 32.0782 42.5996 22.7998 42.5996C22.2477 42.5996 21.7019 42.5729 21.1635 42.5208C21.1402 42.5186 21.1201 42.5368 21.1201 42.5602C21.1201 42.5819 21.1025 42.5996 21.0807 42.5996H9.36C7.50432 42.5996 6 41.0953 6 39.2396V27.5194C6 27.4974 6.01787 27.4795 6.03991 27.4795C6.06352 27.4795 6.08196 27.4591 6.07969 27.4356C6.02763 26.8974 6 26.3517 6 25.7998C6.00011 16.5216 13.5216 9.00011 22.7998 9Z" fill="#3A3ADB" fill-opacity="0.8"/>
</svg>
