<svg width="60" height="60" viewBox="0 0 60 60" fill="none" xmlns="http://www.w3.org/2000/svg">
<path d="M28.6123 9C34.0247 9.00004 38.9492 11.087 42.627 14.499L28.2988 26.1328C26.7961 27.3528 26.5673 29.5598 27.7871 31.0625C29.0071 32.5652 31.2141 32.795 32.7168 31.5752L46.8857 20.0713C48.3784 22.9243 49.2246 26.1693 49.2246 29.6123C49.2245 40.996 39.996 50.2245 28.6123 50.2246C17.2286 50.2246 8.00008 40.996 8 29.6123C8 18.2285 17.2285 9 28.6123 9Z" fill="#3A3ADB"/>
<path d="M28.6123 14.6216C32.2603 14.6216 35.6039 15.9252 38.2031 18.0913L28.2988 26.1333C26.7962 27.3533 26.5672 29.5603 27.7871 31.063C29.0071 32.5656 31.2141 32.7947 32.7168 31.5747L42.3975 23.7153C43.1728 25.5254 43.6035 27.5189 43.6035 29.6128C43.6033 37.8917 36.8913 44.603 28.6123 44.603C20.3334 44.603 13.6223 37.8917 13.6221 29.6128C13.6221 21.3337 20.3332 14.6217 28.6123 14.6216Z" fill="#72EDF2"/>
<path d="M28.6123 14.6216C32.2603 14.6216 35.6039 15.9252 38.2031 18.0913L28.2988 26.1333C26.7962 27.3533 26.5672 29.5603 27.7871 31.063C29.0071 32.5656 31.2141 32.7947 32.7168 31.5747L42.3975 23.7153C43.1728 25.5254 43.6035 27.5189 43.6035 29.6128C43.6033 37.8917 36.8913 44.603 28.6123 44.603C20.3334 44.603 13.6223 37.8917 13.6221 29.6128C13.6221 21.3337 20.3332 14.6217 28.6123 14.6216Z" fill="#72EDF2"/>
<rect x="28.6123" y="27.897" width="27.0826" height="3.74767" rx="1.87383" transform="rotate(-39.0713 28.6123 27.897)" fill="#72EDF2"/>
<path d="M28.6113 22.1167C29.8917 22.1167 31.0971 22.4384 32.1514 23.0044L28.2988 26.1333C26.7962 27.3533 26.5672 29.5603 27.7871 31.063C29.0071 32.5656 31.2141 32.7947 32.7168 31.5747L36.0684 28.853C36.0935 29.1026 36.1074 29.3557 36.1074 29.6118C36.1074 33.7514 32.7509 37.1079 28.6113 37.1079C24.4719 37.1078 21.1162 33.7513 21.1162 29.6118C21.1164 25.4725 24.472 22.1168 28.6113 22.1167Z" fill="#3A3ADB"/>
</svg>
