<svg width="60" height="60" viewBox="0 0 60 60" fill="none" xmlns="http://www.w3.org/2000/svg">
<path d="M22.3506 23.3855V15.9925C22.8435 14.0211 25.3078 9.33868 31.2221 10.0784C34.9627 10.5462 36.1508 13.7747 37.1365 15.2533" stroke="#72EDF2" stroke-width="4.43578" stroke-linecap="round"/>
<rect x="12" y="23.3853" width="35.4862" height="26.6147" rx="2.95719" fill="#3A3ADB"/>
<path d="M29.7422 30.7002C32.192 30.7002 34.1786 32.686 34.1787 35.1357C34.1787 37.0667 32.9439 38.7081 31.2217 39.3174V42.5293C31.2215 43.3457 30.5596 44.0078 29.7432 44.0078C28.9268 44.0076 28.2648 43.3456 28.2646 42.5293V39.3184C26.5416 38.7095 25.3066 37.0672 25.3066 35.1357C25.3067 32.6861 27.2926 30.7004 29.7422 30.7002Z" fill="#72EDF2"/>
</svg>
