<svg width="60" height="60" viewBox="0 0 60 60" fill="none" xmlns="http://www.w3.org/2000/svg">
<path d="M30.2572 9C41.9369 9.00036 51.4056 18.4687 51.4057 30.1484C51.4057 41.8283 41.937 51.2965 30.2572 51.2969C26.8094 51.2969 23.5539 50.4713 20.6781 49.0078L10.2514 50.3125C8.67194 50.5097 7.50618 48.8724 8.20938 47.4443L11.7143 40.3262C10.0535 37.3067 9.10879 33.8379 9.10879 30.1484C9.10888 18.4685 18.5772 9 30.2572 9ZM18.5014 32C17.6729 32 17.0014 32.6716 17.0014 33.5C17.0014 34.3284 17.6729 35 18.5014 35H42.5014C43.3294 34.9995 44.0014 34.3281 44.0014 33.5C44.0014 32.6719 43.3294 32.0005 42.5014 32H18.5014ZM18.5004 24C17.672 24 17.0004 24.6716 17.0004 25.5C17.0004 26.3284 17.672 27 18.5004 27H42.5004C43.3284 26.9995 44.0004 26.3281 44.0004 25.5C44.0004 24.6719 43.3284 24.0005 42.5004 24H18.5004Z" fill="#3A3ADB"/>
</svg>
