<svg width="60" height="60" viewBox="0 0 60 60" fill="none" xmlns="http://www.w3.org/2000/svg">
<path d="M35.2725 12C37.13 12 38.6365 13.5058 38.6367 15.3633V43.9541H21.8184V15.3633C21.8186 13.5058 23.3242 12.0001 25.1816 12H35.2725ZM30.5371 18.8135L28.0137 19.6543C27.1327 19.9481 26.6565 20.9011 26.9502 21.7822C27.2441 22.6631 28.1971 23.1394 29.0781 22.8457L29.3867 22.7422V28.8184C29.3868 29.747 30.1397 30.4999 31.0684 30.5C31.9969 30.4998 32.7499 29.747 32.75 28.8184V18.0762L30.5371 18.8135Z" fill="#3A3ADB"/>
<path d="M8.36426 23.7728C8.36426 21.9151 9.87021 20.4092 11.7279 20.4092H21.8188V43.9546H8.36426V23.7728Z" fill="#72EDF2"/>
<path d="M38.6367 27.1362H48.7276C50.5853 27.1362 52.0913 28.6422 52.0913 30.4999V43.9544H38.6367V27.1362Z" fill="#72EDF2"/>
<rect x="5" y="43.9546" width="50.4545" height="5.04545" rx="2.52273" fill="#3A3ADB"/>
</svg>
