<svg width="60" height="60" viewBox="0 0 60 60" fill="none" xmlns="http://www.w3.org/2000/svg">
<circle cx="30" cy="30" r="16" fill="#3A3ADB"/>
<mask id="path-2-inside-1_707_9031" fill="white">
<path d="M46.9436 26.2779C47.8349 26.0821 48.4058 25.1978 48.1333 24.3269C47.0414 20.8365 44.9607 17.7231 42.1274 15.3738C38.8687 12.6718 34.8009 11.1354 30.5696 11.0085C26.3383 10.8816 22.1857 12.1714 18.7709 14.6733C15.3561 17.1752 12.8746 20.7458 11.7202 24.8185C10.5657 28.8913 10.8045 33.233 12.3985 37.1546C13.9926 41.0763 16.8507 44.3532 20.5192 46.4656C24.1878 48.5779 28.4567 49.4046 32.6486 48.8145C36.2932 48.3014 39.6981 46.7429 42.4592 44.3447C43.1482 43.7462 43.1263 42.6939 42.4703 42.0595C41.8143 41.4251 40.7733 41.4504 40.0734 42.0361C37.8326 43.9116 35.1031 45.1316 32.1879 45.542C28.7251 46.0295 25.1987 45.3466 22.1682 43.6017C19.1378 41.8567 16.7768 39.1497 15.46 35.9102C14.1432 32.6707 13.946 29.0842 14.8996 25.7198C15.8533 22.3554 17.9032 19.4058 20.724 17.3391C23.5449 15.2724 26.9752 14.207 30.4705 14.3118C33.9659 14.4166 37.3261 15.6858 40.0181 17.9178C42.2843 19.7969 43.9676 22.2678 44.891 25.0401C45.1794 25.906 46.0523 26.4737 46.9436 26.2779Z"/>
</mask>
<path d="M46.9436 26.2779C47.8349 26.0821 48.4058 25.1978 48.1333 24.3269C47.0414 20.8365 44.9607 17.7231 42.1274 15.3738C38.8687 12.6718 34.8009 11.1354 30.5696 11.0085C26.3383 10.8816 22.1857 12.1714 18.7709 14.6733C15.3561 17.1752 12.8746 20.7458 11.7202 24.8185C10.5657 28.8913 10.8045 33.233 12.3985 37.1546C13.9926 41.0763 16.8507 44.3532 20.5192 46.4656C24.1878 48.5779 28.4567 49.4046 32.6486 48.8145C36.2932 48.3014 39.6981 46.7429 42.4592 44.3447C43.1482 43.7462 43.1263 42.6939 42.4703 42.0595C41.8143 41.4251 40.7733 41.4504 40.0734 42.0361C37.8326 43.9116 35.1031 45.1316 32.1879 45.542C28.7251 46.0295 25.1987 45.3466 22.1682 43.6017C19.1378 41.8567 16.7768 39.1497 15.46 35.9102C14.1432 32.6707 13.946 29.0842 14.8996 25.7198C15.8533 22.3554 17.9032 19.4058 20.724 17.3391C23.5449 15.2724 26.9752 14.207 30.4705 14.3118C33.9659 14.4166 37.3261 15.6858 40.0181 17.9178C42.2843 19.7969 43.9676 22.2678 44.891 25.0401C45.1794 25.906 46.0523 26.4737 46.9436 26.2779Z" stroke="#72EDF2" stroke-width="6.51429" mask="url(#path-2-inside-1_707_9031)"/>
<path d="M42 25H48V19" stroke="#72EDF2" stroke-width="3" stroke-linecap="round"/>
<rect x="31.6289" y="17.6953" width="14.1143" height="3.25714" rx="1.62857" transform="rotate(90 31.6289 17.6953)" fill="#72EDF2"/>
<rect x="40.2236" y="37.8779" width="14.1143" height="3.25714" rx="1.62857" transform="rotate(-150 40.2236 37.8779)" fill="#72EDF2"/>
</svg>
