<svg width="60" height="60" viewBox="0 0 60 60" fill="none" xmlns="http://www.w3.org/2000/svg">
<path d="M44.7725 9.42592C46.0861 8.4044 47.9997 9.34007 48 11.004V36.9591C47.9999 38.1933 47.4302 39.3586 46.4561 40.1164L31.2279 51.9602C30.5056 52.5219 29.4944 52.5219 28.7721 51.9602L13.5439 40.1164C12.5698 39.3586 12.0001 38.1933 12 36.9591V11.004C12.0003 9.34007 13.9139 8.4044 15.2275 9.42592L28.7722 19.9602C29.4944 20.5219 30.5056 20.5219 31.2279 19.9602L44.7725 9.42592Z" fill="#3A3ADB"/>
<path d="M12 11.0893V37.0437C12 38.278 12.5699 39.4432 13.5442 40.2011L30 53V21L15.2279 9.51057C13.9142 8.4888 12 9.42498 12 11.0893Z" fill="#72EDF2"/>
</svg>
