<svg width="60" height="60" viewBox="0 0 60 60" fill="none" xmlns="http://www.w3.org/2000/svg">
<path d="M13.0068 33.8497V15.7584C13.0068 14.7635 13.8133 13.957 14.8082 13.957H23.1829C23.5919 13.957 23.9888 14.0962 24.3082 14.3518L32.8214 21.1623L47.8019 35.2616C48.019 35.4659 48.1831 35.7184 48.2493 36.0091C48.5419 37.2943 48.991 40.9769 44.53 40.9769C44.53 40.9769 43.6293 44.5795 39.126 43.6788C39.126 43.6788 37.3247 47.2815 32.8214 45.4802C32.8214 45.4802 31.0964 48.0677 26.8023 46.4904C26.6138 46.4212 26.4393 46.3137 26.2876 46.1822L13.6284 35.2109C13.2336 34.8688 13.0068 34.3721 13.0068 33.8497Z" fill="#3A3ADB"/>
<path d="M45.4305 35.07H48.1325V17.0565L42.7285 15.2552C39.1259 13.957 33.1743 12.5538 31.0199 12.1553C28.7795 11.7408 26.5166 12.2532 25.616 12.5535C22.6138 14.0546 16.6094 17.9574 16.6094 21.5601C16.6094 26.0634 18.4107 26.0634 20.212 26.0634C22.0133 26.0634 23.8147 23.3614 25.616 21.5601C27.057 20.119 28.6182 20.3592 29.2186 20.6594L45.4305 35.07Z" fill="#72EDF2"/>
<rect x="4" y="13.957" width="9.00661" height="21.6159" rx="1.80132" fill="#72EDF2"/>
<rect x="47.2314" y="13.957" width="9.00661" height="21.6159" rx="1.80132" fill="#3A3ADB"/>
</svg>
